<svg width="16" height="16" viewBox="0 0 16 16" fill="none" xmlns="http://www.w3.org/2000/svg">
<g id="&#229;&#186;&#148;&#231;&#148;&#168;&#231;&#174;&#161;&#231;&#144;&#134;">
<path id="Vector" d="M4.5013 1.66663C6.06611 1.66663 7.33464 2.93515 7.33464 4.49996V7.33329H4.5013C2.9365 7.33329 1.66797 6.06477 1.66797 4.49996C1.66797 2.93515 2.9365 1.66663 4.5013 1.66663ZM6.0013 5.99996V4.49996C6.0013 3.67153 5.32973 2.99996 4.5013 2.99996C3.67288 2.99996 3.0013 3.67153 3.0013 4.49996C3.0013 5.32839 3.67288 5.99996 4.5013 5.99996H6.0013ZM4.5013 8.66663H7.33464V11.5C7.33464 13.0648 6.06611 14.3333 4.5013 14.3333C2.9365 14.3333 1.66797 13.0648 1.66797 11.5C1.66797 9.93516 2.9365 8.66663 4.5013 8.66663ZM4.5013 9.99996C3.67288 9.99996 3.0013 10.6716 3.0013 11.5C3.0013 12.3284 3.67288 13 4.5013 13C5.32973 13 6.0013 12.3284 6.0013 11.5V9.99996H4.5013ZM11.5013 1.66663C13.0661 1.66663 14.3346 2.93515 14.3346 4.49996C14.3346 6.06477 13.0661 7.33329 11.5013 7.33329H8.66797V4.49996C8.66797 2.93515 9.9365 1.66663 11.5013 1.66663ZM11.5013 5.99996C12.3297 5.99996 13.0013 5.32839 13.0013 4.49996C13.0013 3.67153 12.3297 2.99996 11.5013 2.99996C10.6729 2.99996 10.0013 3.67153 10.0013 4.49996V5.99996H11.5013ZM8.66797 8.66663H11.5013C13.0661 8.66663 14.3346 9.93516 14.3346 11.5C14.3346 13.0648 13.0661 14.3333 11.5013 14.3333C9.9365 14.3333 8.66797 13.0648 8.66797 11.5V8.66663ZM10.0013 9.99996V11.5C10.0013 12.3284 10.6729 13 11.5013 13C12.3297 13 13.0013 12.3284 13.0013 11.5C13.0013 10.6716 12.3297 9.99996 11.5013 9.99996H10.0013Z" fill="#1677FF"/>
</g>
</svg>
