<svg width="16" height="16" viewBox="0 0 16 16" fill="none" xmlns="http://www.w3.org/2000/svg">
<g id="&#232;&#180;&#166;&#229;&#143;&#183;&#232;&#174;&#190;&#231;&#189;&#174;">
<path id="Vector" d="M1.33203 7.99987C1.33203 7.42353 1.40516 6.86427 1.54266 6.33087C2.26951 6.36855 2.99102 6.00677 3.3799 5.33321C3.76848 4.66017 3.7214 3.85514 3.32617 3.24467C4.12106 2.46353 5.11091 1.88015 6.21605 1.57422C6.54683 2.22257 7.2209 2.66655 7.9987 2.66655C8.7765 2.66655 9.45056 2.22257 9.78136 1.57422C10.8865 1.88015 11.8764 2.46353 12.6712 3.24467C12.276 3.85514 12.2289 4.66017 12.6175 5.33321C13.0064 6.00677 13.7279 6.36855 14.4548 6.33087C14.5922 6.86427 14.6654 7.42353 14.6654 7.99987C14.6654 8.5762 14.5922 9.13547 14.4548 9.66887C13.7279 9.6312 13.0064 9.993 12.6175 10.6665C12.2289 11.3396 12.276 12.1446 12.6712 12.7551C11.8764 13.5362 10.8865 14.1196 9.78136 14.4255C9.45056 13.7772 8.7765 13.3332 7.9987 13.3332C7.2209 13.3332 6.54683 13.7772 6.21605 14.4255C5.11091 14.1196 4.12106 13.5362 3.32617 12.7551C3.7214 12.1446 3.76848 11.3396 3.3799 10.6665C2.99102 9.993 2.26951 9.6312 1.54266 9.66887C1.40516 9.13547 1.33203 8.5762 1.33203 7.99987ZM4.5346 9.99987C4.95466 10.7275 5.07508 11.5639 4.91082 12.3491C5.18268 12.5425 5.47206 12.7101 5.77529 12.8494C6.3732 12.3141 7.15816 11.9999 7.9987 11.9999C8.83923 11.9999 9.62416 12.3141 10.2221 12.8494C10.5253 12.7101 10.8147 12.5425 11.0866 12.3491C10.9223 11.5639 11.0427 10.7275 11.4628 9.99987C11.8828 9.27233 12.547 8.74987 13.309 8.49953C13.3243 8.33433 13.332 8.16773 13.332 7.99987C13.332 7.83207 13.3243 7.6654 13.309 7.50027C12.547 7.24993 11.8828 6.72747 11.4628 5.99988C11.0427 5.2723 10.9223 4.43585 11.0866 3.6507C10.8147 3.45725 10.5253 3.28965 10.2221 3.15035C9.62416 3.68563 8.83923 3.99988 7.9987 3.99988C7.15816 3.99988 6.3732 3.68563 5.77529 3.15035C5.47206 3.28965 5.18268 3.45725 4.91082 3.6507C5.07508 4.43585 4.95466 5.2723 4.5346 5.99988C4.11454 6.72747 3.45039 7.24993 2.68837 7.50027C2.67308 7.6654 2.66536 7.83207 2.66536 7.99987C2.66536 8.16773 2.67308 8.33433 2.68837 8.49953C3.45039 8.74987 4.11454 9.27233 4.5346 9.99987ZM7.9987 9.99987C6.8941 9.99987 5.9987 9.10447 5.9987 7.99987C5.9987 6.89533 6.8941 5.99988 7.9987 5.99988C9.1033 5.99988 9.9987 6.89533 9.9987 7.99987C9.9987 9.10447 9.1033 9.99987 7.9987 9.99987ZM7.9987 8.66653C8.3669 8.66653 8.66536 8.36807 8.66536 7.99987C8.66536 7.63167 8.3669 7.3332 7.9987 7.3332C7.6305 7.3332 7.33203 7.63167 7.33203 7.99987C7.33203 8.36807 7.6305 8.66653 7.9987 8.66653Z" fill="black" fill-opacity="0.65"/>
</g>
</svg>
