<svg width="160" height="120" viewBox="0 0 160 120" fill="none" xmlns="http://www.w3.org/2000/svg">
<g id="&#230;&#168;&#161;&#229;&#158;&#139;&#232;&#163;&#133;&#233;&#165;&#176;" clip-path="url(#clip0_7239_110754)">
<path id="&#229;&#135;&#143;&#229;&#142;&#187;_418_1_" opacity="0.3" d="M135.385 71.5C113.585 71.5 95.8848 53.8 95.8848 32C95.8848 16.1 105.385 1.8 119.985 -4.4C140.085 -12.9 163.285 -3.5 171.785 16.6C180.285 36.7 170.885 59.9 150.785 68.4C145.885 70.5 140.685 71.5 135.385 71.5ZM135.385 12.5C124.585 12.5 115.885 21.2 115.885 32C115.885 42.8 124.585 51.5 135.385 51.5C146.185 51.5 154.885 42.8 154.885 32C154.885 21.2 146.185 12.5 135.385 12.5Z" fill="#0045FF" fill-opacity="0.1"/>
<path id="&#230;&#164;&#173;&#229;&#156;&#134;_10277_1_" opacity="0.3" d="M101 41C110.941 41 119 32.9411 119 23C119 13.0589 110.941 5 101 5C91.0589 5 83 13.0589 83 23C83 32.9411 91.0589 41 101 41Z" fill="#0045FF" fill-opacity="0.1"/>
<path id="&#231;&#155;&#180;&#231;&#186;&#191;_2097_1_" opacity="0.4" d="M156 -16L64 89" stroke="url(#paint0_linear_7239_110754)"/>
</g>
<defs>
<linearGradient id="paint0_linear_7239_110754" x1="162" y1="-0.5" x2="129.839" y2="109.296" gradientUnits="userSpaceOnUse">
<stop stop-color="#0045FF" stop-opacity="0.2"/>
<stop offset="1" stop-color="#0045FF" stop-opacity="0"/>
</linearGradient>
<clipPath id="clip0_7239_110754">
<rect width="160" height="120" fill="white"/>
</clipPath>
</defs>
</svg>
