<svg width="20" height="20" viewBox="0 0 20 20" fill="none" xmlns="http://www.w3.org/2000/svg">
<g id="autogen_roles">
<g id="Union">
<path fill-rule="evenodd" clip-rule="evenodd" d="M5.28543 4.11085C5.17929 4.17552 5.09969 4.25866 5.04661 4.36028L5.00681 4.44342L1.0398 15.0577C1.01327 15.1316 1 15.2148 1 15.3072C1 15.5012 1.06192 15.6628 1.18575 15.7921C1.31842 15.9307 1.47763 16 1.66338 16C1.8049 16 1.92873 15.9584 2.03487 15.8753C2.14986 15.7921 2.23389 15.6859 2.28696 15.5566L3.30856 12.8406H7.96548L8.98709 15.5566C9.04016 15.6859 9.11977 15.7921 9.22591 15.8753C9.34089 15.9584 9.46915 16 9.61067 16C9.79641 16 9.9512 15.9307 10.075 15.7921C10.2077 15.6628 10.274 15.5012 10.274 15.3072C10.274 15.2148 10.2608 15.1316 10.2342 15.0577L6.25397 4.44342L6.21416 4.36028C6.16109 4.25866 6.08149 4.17552 5.97535 4.11085C5.86921 4.03695 5.75422 4 5.63039 4C5.50656 4 5.39157 4.03695 5.28543 4.11085ZM5.63039 6.60508L7.44805 11.455H3.826L5.63039 6.60508Z" fill="black" fill-opacity="0.45"/>
<path d="M18.3366 9.66518H15.4178C15.232 9.66518 15.0728 9.73446 14.9401 9.87303C14.8163 10.0024 14.7544 10.164 14.7544 10.358C14.7544 10.552 14.8163 10.7183 14.9401 10.8569C15.0728 10.9862 15.232 11.0509 15.4178 11.0509H17.66C17.6334 11.7899 17.5627 12.3904 17.4477 12.8522C17.3327 13.3141 17.1602 13.6744 16.9303 13.9331C16.7091 14.1917 16.4217 14.3673 16.0679 14.4596C15.7229 14.552 15.3072 14.5982 14.8207 14.5982C13.7416 14.5982 12.9367 14.2287 12.406 13.4897C11.8753 12.7414 11.61 11.5728 11.61 9.98389C11.61 8.40421 11.8753 7.24486 12.406 6.50583C12.9367 5.7668 13.7416 5.39728 14.8207 5.39728C15.5195 5.39728 16.0811 5.54047 16.5057 5.82684C16.9391 6.11322 17.2929 6.57511 17.5671 7.21252C17.6202 7.33261 17.6998 7.42961 17.8059 7.50352C17.9209 7.57742 18.0447 7.61437 18.1774 7.61437C18.3632 7.61437 18.5179 7.54971 18.6418 7.42038C18.7745 7.28181 18.8408 7.11552 18.8408 6.92153C18.8408 6.87534 18.8364 6.82915 18.8275 6.78296C18.8187 6.72753 18.8054 6.67673 18.7877 6.63054C18.4162 5.78989 17.8944 5.14324 17.2221 4.69058C16.5588 4.23793 15.7583 4.0116 14.8207 4.0116C14.1043 4.0116 13.463 4.15017 12.8969 4.4273C12.3308 4.6952 11.8532 5.08781 11.464 5.60513C11.0837 6.11322 10.7918 6.73677 10.5883 7.4758C10.3849 8.21483 10.2832 9.05086 10.2832 9.98389C10.2832 10.9261 10.3849 11.7668 10.5883 12.5058C10.7918 13.2449 11.0837 13.873 11.464 14.3904C11.8532 14.9077 12.3308 15.3003 12.8969 15.5682C13.463 15.8453 14.1043 15.9839 14.8207 15.9839C15.4929 15.9839 16.0856 15.8915 16.5986 15.7067C17.1204 15.5312 17.5583 15.2264 17.9121 14.7922C18.2659 14.358 18.5356 13.7807 18.7214 13.0601C18.9071 12.3395 19 11.4389 19 10.358C19 10.164 18.9337 10.0024 18.801 9.87303C18.6772 9.73446 18.5224 9.66518 18.3366 9.66518Z" fill="black" fill-opacity="0.45"/>
</g>
</g>
</svg>
