<svg width="24" height="24" viewBox="0 0 24 24" fill="none" xmlns="http://www.w3.org/2000/svg">
<g id="&#229;&#183;&#165;&#228;&#189;&#156;&#233;&#147;&#190;">
<path id="Union" fill-rule="evenodd" clip-rule="evenodd" d="M5.5 7C5.5 6.17157 6.17157 5.5 7 5.5C7.82843 5.5 8.5 6.17157 8.5 7C8.5 7.82843 7.82843 8.5 7 8.5C6.17157 8.5 5.5 7.82843 5.5 7ZM7 4C5.34315 4 4 5.34315 4 7C4 8.30622 4.83481 9.41746 6 9.82929V10.25C6 11.7688 7.23122 13 8.75 13H11.25V14.0945C9.95608 14.4275 9 15.6021 9 17C9 18.6569 10.3431 20 12 20C13.6569 20 15 18.6569 15 17C15 15.6021 14.0439 14.4275 12.75 14.0945V13H15.25C16.7688 13 18 11.7688 18 10.25V9.82929C19.1652 9.41746 20 8.30622 20 7C20 5.34315 18.6569 4 17 4C15.3431 4 14 5.34315 14 7C14 8.4865 15.0811 9.72048 16.5 9.95852V10.25C16.5 10.9404 15.9404 11.5 15.25 11.5H8.75C8.05964 11.5 7.5 10.9404 7.5 10.25V9.95852C8.91886 9.72048 10 8.4865 10 7C10 5.34315 8.65685 4 7 4ZM15.5 7C15.5 6.17157 16.1716 5.5 17 5.5C17.8284 5.5 18.5 6.17157 18.5 7C18.5 7.82843 17.8284 8.5 17 8.5C16.1716 8.5 15.5 7.82843 15.5 7ZM12 15.5C11.1716 15.5 10.5 16.1716 10.5 17C10.5 17.8284 11.1716 18.5 12 18.5C12.8284 18.5 13.5 17.8284 13.5 17C13.5 16.1716 12.8284 15.5 12 15.5Z" fill="black" fill-opacity="0.45"/>
</g>
</svg>
