<svg width="24" height="24" viewBox="0 0 24 24" fill="none" xmlns="http://www.w3.org/2000/svg">
<g id="&#229;&#181;&#140;&#229;&#133;&#165;&#229;&#153;&#168;">
<g id="Union">
<path fill-rule="evenodd" clip-rule="evenodd" d="M9.75 9C9.33579 9 9 9.33579 9 9.75V14.25C9 14.6642 9.33579 15 9.75 15H14.25C14.6642 15 15 14.6642 15 14.25V9.75C15 9.33579 14.6642 9 14.25 9H9.75ZM10.5 13.5V10.5H13.5V13.5H10.5Z" fill="black" fill-opacity="0.45"/>
<path fill-rule="evenodd" clip-rule="evenodd" d="M9.5 4.75C9.5 4.33579 9.16421 4 8.75 4C8.33579 4 8 4.33579 8 4.75V6.10352C7.08416 6.36255 6.36255 7.08416 6.10352 8H4.75C4.33579 8 4 8.33579 4 8.75C4 9.16421 4.33579 9.5 4.75 9.5H6V14.5H4.75C4.33579 14.5 4 14.8358 4 15.25C4 15.6642 4.33579 16 4.75 16H6.10352C6.36255 16.9158 7.08416 17.6375 8 17.8965V19.25C8 19.6642 8.33579 20 8.75 20C9.16421 20 9.5 19.6642 9.5 19.25V18H14.5V19.25C14.5 19.6642 14.8358 20 15.25 20C15.6642 20 16 19.6642 16 19.25V17.8965C16.9158 17.6375 17.6375 16.9158 17.8965 16H19.25C19.6642 16 20 15.6642 20 15.25C20 14.8358 19.6642 14.5 19.25 14.5H18V9.5H19.25C19.6642 9.5 20 9.16421 20 8.75C20 8.33579 19.6642 8 19.25 8H17.8965C17.6375 7.08416 16.9158 6.36255 16 6.10352V4.75C16 4.33579 15.6642 4 15.25 4C14.8358 4 14.5 4.33579 14.5 4.75V6H9.5V4.75ZM7.5 8.75C7.5 8.05964 8.05964 7.5 8.75 7.5H15.25C15.9404 7.5 16.5 8.05964 16.5 8.75V15.25C16.5 15.9404 15.9404 16.5 15.25 16.5H8.75C8.05964 16.5 7.5 15.9404 7.5 15.25V8.75Z" fill="black" fill-opacity="0.45"/>
</g>
</g>
</svg>
