<svg width="24" height="24" viewBox="0 0 24 24" fill="none" xmlns="http://www.w3.org/2000/svg">
<g id="&#232;&#190;&#147;&#229;&#133;&#165;">
<path id="Union" fill-rule="evenodd" clip-rule="evenodd" d="M4 8.75C4 7.23122 5.23122 6 6.75 6L17.25 6C18.7688 6 20 7.23122 20 8.75V10.25C20 10.6642 19.6642 11 19.25 11C18.8358 11 18.5 10.6642 18.5 10.25V8.75C18.5 8.05964 17.9404 7.5 17.25 7.5L6.75 7.5C6.05964 7.5 5.5 8.05964 5.5 8.75L5.5 13.25C5.5 13.9404 6.05964 14.5 6.75 14.5L11.25 14.5C11.6642 14.5 12 14.8358 12 15.25C12 15.6642 11.6642 16 11.25 16L6.75 16C5.23122 16 4 14.7688 4 13.25L4 8.75ZM14.312 11.1412C14.5576 10.9645 14.8853 10.9527 15.1429 11.1112L19.6429 13.8792C19.896 14.0348 20.0333 14.3251 19.9931 14.6194C19.9529 14.9138 19.7428 15.1567 19.4573 15.2388L17.535 15.7916L16.7044 17.5677C16.5689 17.8574 16.2646 18.0293 15.9465 17.9959C15.6285 17.9624 15.3666 17.7309 15.2944 17.4194L14.0194 11.9194C13.9511 11.6247 14.0665 11.3178 14.312 11.1412ZM15.886 13.3293L16.2653 14.9656L16.3206 14.8473C16.4124 14.6511 16.5845 14.5041 16.7927 14.4442L17.41 14.2667L15.886 13.3293Z" fill="black" fill-opacity="0.45"/>
</g>
</svg>
