<svg width="24" height="24" viewBox="0 0 24 24" fill="none" xmlns="http://www.w3.org/2000/svg">
<g id="&#232;&#163;&#133;&#232;&#189;&#189;&#229;&#153;&#168;">
<path id="Union" fill-rule="evenodd" clip-rule="evenodd" d="M6.46967 5.21967C6.76256 4.92678 7.23744 4.92678 7.53033 5.21967L8.78033 6.46967C9.07322 6.76256 9.07322 7.23744 8.78033 7.53033L7.53033 8.78033C7.23744 9.07322 6.76256 9.07322 6.46967 8.78033L5.21967 7.53033C4.92678 7.23744 4.92678 6.76256 5.21967 6.46967L6.46967 5.21967ZM15 5C15.4142 5 15.75 5.33579 15.75 5.75C15.75 7.08579 16.9142 8.25 18.25 8.25C18.6642 8.25 19 8.58579 19 9C19 9.41421 18.6642 9.75 18.25 9.75C16.9142 9.75 15.75 10.9142 15.75 12.25C15.75 12.6642 15.4142 13 15 13C14.5858 13 14.25 12.6642 14.25 12.25C14.25 10.9142 13.0858 9.75 11.75 9.75C11.3358 9.75 11 9.41421 11 9C11 8.58579 11.3358 8.25 11.75 8.25C13.0858 8.25 14.25 7.08579 14.25 5.75C14.25 5.33579 14.5858 5 15 5ZM15 8.04529C14.7363 8.4128 14.4128 8.73632 14.0453 9C14.4128 9.26368 14.7363 9.5872 15 9.95471C15.2637 9.5872 15.5872 9.26368 15.9547 9C15.5872 8.73632 15.2637 8.4128 15 8.04529ZM6.81066 7L7 7.18934L7.18934 7L7 6.81066L6.81066 7ZM8 13C8.41421 13 8.75 13.3358 8.75 13.75C8.75 13.7591 8.75 13.7681 8.75 13.7771C8.75004 14.3424 8.75157 14.707 8.78057 14.968C8.79324 15.082 8.80877 15.1471 8.81912 15.1809C8.8529 15.1912 8.91801 15.2068 9.03204 15.2194C9.29181 15.2483 9.65424 15.2499 10.2152 15.25C10.2267 15.25 10.2383 15.25 10.25 15.25C10.6642 15.25 11 15.5858 11 16C11 16.4142 10.6642 16.75 10.25 16.75C10.2383 16.75 10.2267 16.75 10.2152 16.75C9.65424 16.7501 9.29181 16.7517 9.03204 16.7806C8.91801 16.7932 8.8529 16.8088 8.81912 16.8191C8.80877 16.8529 8.79324 16.918 8.78057 17.032C8.75157 17.293 8.75004 17.6576 8.75 18.2229C8.75 18.2319 8.75 18.2409 8.75 18.25C8.75 18.6642 8.41421 19 8 19C7.58579 19 7.25 18.6642 7.25 18.25C7.25 18.2409 7.25 18.2319 7.25 18.2229C7.24996 17.6576 7.24843 17.293 7.21943 17.032C7.20676 16.918 7.19123 16.8529 7.18088 16.8191C7.1471 16.8088 7.08199 16.7932 6.96796 16.7806C6.70819 16.7517 6.34576 16.7501 5.78482 16.75C5.7733 16.75 5.76169 16.75 5.75 16.75C5.33579 16.75 5 16.4142 5 16C5 15.5858 5.33579 15.25 5.75 15.25C5.76169 15.25 5.7733 15.25 5.78482 15.25C6.34576 15.2499 6.70819 15.2483 6.96796 15.2194C7.08199 15.2068 7.1471 15.1912 7.18088 15.1809C7.19123 15.1471 7.20676 15.082 7.21943 14.968C7.24843 14.707 7.24996 14.3424 7.25 13.7771C7.25 13.7681 7.25 13.7591 7.25 13.75C7.25 13.3358 7.58579 13 8 13ZM16.4697 14.2197C16.7626 13.9268 17.2374 13.9268 17.5303 14.2197L19.7803 16.4697C20.0732 16.7626 20.0732 17.2374 19.7803 17.5303L17.5303 19.7803C17.2374 20.0732 16.7626 20.0732 16.4697 19.7803L14.2197 17.5303C13.9268 17.2374 13.9268 16.7626 14.2197 16.4697L16.4697 14.2197ZM15.8107 17L17 18.1893L18.1893 17L17 15.8107L15.8107 17Z" fill="black" fill-opacity="0.45"/>
</g>
</svg>
