<svg width="24" height="24" viewBox="0 0 24 24" fill="none" xmlns="http://www.w3.org/2000/svg">
<g id="&#232;&#174;&#176;&#229;&#191;&#134;&#229;&#153;&#168;">
<path id="Union" fill-rule="evenodd" clip-rule="evenodd" d="M11.25 5.5C10.4042 5.5 9.6971 6.10073 9.53502 6.8992C9.46406 7.24877 9.15671 7.5 8.80001 7.5H8.66667C7.67608 7.5 6.84075 8.16477 6.58248 9.07253C6.7966 9.02506 7.01969 9 7.25 9C7.66421 9 8 9.33579 8 9.75C8 10.1642 7.66421 10.5 7.25 10.5C6.34917 10.5 5.5 11.3266 5.5 12.5C5.5 13.0966 5.7279 13.62 6.07436 13.9798C6.12882 14.0363 6.18609 14.0887 6.24571 14.1367C6.53565 14.37 6.88182 14.5 7.25 14.5H7.75C8.16421 14.5 8.5 14.8358 8.5 15.25C8.5 15.6642 8.16421 16 7.75 16H7.28214C7.65768 16.3122 8.14038 16.5 8.66667 16.5H8.80001C9.15671 16.5 9.46406 16.7512 9.53502 17.1008C9.6971 17.8993 10.4042 18.5 11.25 18.5V11.2585C10.8711 11.6068 10.4169 11.8815 9.89709 11.9854C9.49092 12.0667 9.0958 11.8033 9.01456 11.3971C8.93333 10.9909 9.19674 10.5958 9.60291 10.5146C9.94131 10.4469 10.3567 10.1291 10.7131 9.57537C11.062 9.03319 11.25 8.42225 11.25 8V5.5ZM12.75 5.5V12.3611C13.1723 12.1215 13.6216 12 14 12H14.25C14.6642 12 15 12.3358 15 12.75C15 13.1642 14.6642 13.5 14.25 13.5H14C13.8647 13.5 13.5359 13.5854 13.2423 13.8408C12.9768 14.0718 12.75 14.4331 12.75 15V18.5C13.5958 18.5 14.3029 17.8993 14.465 17.1008C14.5359 16.7512 14.8433 16.5 15.2 16.5H15.3333C15.8596 16.5 16.3423 16.3122 16.7179 16H16.25C15.8358 16 15.5 15.6642 15.5 15.25C15.5 14.8358 15.8358 14.5 16.25 14.5H16.75C17.1182 14.5 17.4644 14.37 17.7543 14.1367C17.8139 14.0887 17.8712 14.0363 17.9256 13.9798C18.2721 13.62 18.5 13.0966 18.5 12.5C18.5 11.3266 17.6508 10.5 16.75 10.5C16.3358 10.5 16 10.1642 16 9.75C16 9.33579 16.3358 9 16.75 9C16.9803 9 17.2034 9.02507 17.4175 9.07253C17.1592 8.16477 16.3239 7.5 15.3333 7.5H15.2C14.8433 7.5 14.5359 7.24877 14.465 6.8992C14.3029 6.10073 13.5958 5.5 12.75 5.5ZM19 9.97294C19.6235 10.6211 20 11.5296 20 12.5C20 13.4795 19.6253 14.3772 19.0061 15.0202C18.9772 15.0503 18.9477 15.0798 18.9177 15.1087C18.5909 16.6257 17.3266 17.7936 15.7608 17.9754C15.277 19.1629 14.1119 20 12.75 20H11.25C9.88809 20 8.72296 19.1629 8.23916 17.9754C6.67339 17.7936 5.40914 16.6257 5.08229 15.1087C5.05228 15.0798 5.0228 15.0503 4.99387 15.0202C4.37472 14.3772 4 13.4795 4 12.5C4 11.5296 4.37651 10.6211 5 9.97294V9.66667C5 7.78623 6.41553 6.23642 8.23916 6.02466C8.72295 4.83715 9.88808 4 11.25 4H12.75C14.1119 4 15.2771 4.83715 15.7608 6.02466C17.5845 6.23642 19 7.78623 19 9.66667V9.97294Z" fill="black" fill-opacity="0.45"/>
</g>
</svg>
