<svg width="20" height="20" viewBox="0 0 20 20" fill="none" xmlns="http://www.w3.org/2000/svg">
<g id="&#232;&#190;&#147;&#229;&#135;&#186;&#232;&#167;&#163;&#230;&#158;&#144;&#229;&#153;&#168;">
<path id="Union" fill-rule="evenodd" clip-rule="evenodd" d="M14.3751 4.58203C14.9504 4.58203 15.4167 5.0484 15.4167 5.6237V14.3737C15.4167 14.949 14.9504 15.4154 14.3751 15.4154H12.9167V4.58203H14.3751ZM16.6667 5.6237C16.6667 4.35805 15.6407 3.33203 14.3751 3.33203H12.2917C11.9466 3.33203 11.6667 3.61185 11.6667 3.95703V16.0404C11.6667 16.3855 11.9466 16.6654 12.2917 16.6654H14.3751C15.6407 16.6654 16.6667 15.6393 16.6667 14.3737V5.6237ZM10.0001 3.95703C10.0001 3.61185 9.72026 3.33203 9.37508 3.33203H5.62508C4.35943 3.33203 3.33342 4.35805 3.33342 5.6237V14.3737C3.33342 15.6393 4.35943 16.6654 5.62508 16.6654H9.37508C9.72026 16.6654 10.0001 16.3855 10.0001 16.0404C10.0001 15.6952 9.72026 15.4154 9.37508 15.4154H5.62508C5.04978 15.4154 4.58342 14.949 4.58342 14.3737V5.6237C4.58342 5.0484 5.04979 4.58203 5.62508 4.58203H9.37508C9.72026 4.58203 10.0001 4.30221 10.0001 3.95703Z" fill="black" fill-opacity="0.45"/>
</g>
</svg>
