<svg width="24" height="24" viewBox="0 0 24 24" fill="none" xmlns="http://www.w3.org/2000/svg">
<g id="&#230;&#143;&#144;&#231;&#164;&#186;&#232;&#175;&#141;">
<path id="Union" fill-rule="evenodd" clip-rule="evenodd" d="M6.75 5.5C6.05964 5.5 5.5 6.05964 5.5 6.75V14.2522C5.5 14.9426 6.05964 15.5022 6.75 15.5022H8.89286C9.30707 15.5022 9.64286 15.838 9.64286 16.2522V17.4842L11.4793 15.7125C11.6191 15.5776 11.8057 15.5022 12 15.5022H17.25C17.9404 15.5022 18.5 14.9426 18.5 14.2522V6.75C18.5 6.05964 17.9404 5.5 17.25 5.5H6.75ZM4 6.75C4 5.23122 5.23122 4 6.75 4H17.25C18.7688 4 20 5.23122 20 6.75V14.2522C20 15.771 18.7688 17.0022 17.25 17.0022H12.3028L9.4136 19.7897C9.19705 19.9987 8.87661 20.0579 8.59965 19.9403C8.32269 19.8227 8.14286 19.5509 8.14286 19.25V17.0022H6.75C5.23122 17.0022 4 15.771 4 14.2522V6.75ZM7 10.25C7 9.83579 7.33579 9.5 7.75 9.5H10.25C10.6642 9.5 11 9.83579 11 10.25C11 10.6642 10.6642 11 10.25 11H7.75C7.33579 11 7 10.6642 7 10.25ZM12 10.25C12 9.83579 12.3358 9.5 12.75 9.5H13.25C13.6642 9.5 14 9.83579 14 10.25C14 10.6642 13.6642 11 13.25 11H12.75C12.3358 11 12 10.6642 12 10.25ZM15 10.25C15 9.83579 15.3358 9.5 15.75 9.5H16.25C16.6642 9.5 17 9.83579 17 10.25C17 10.6642 16.6642 11 16.25 11H15.75C15.3358 11 15 10.6642 15 10.25ZM7 13.25C7 12.8358 7.33579 12.5 7.75 12.5H12.25C12.6642 12.5 13 12.8358 13 13.25C13 13.6642 12.6642 14 12.25 14H7.75C7.33579 14 7 13.6642 7 13.25ZM14 13.25C14 12.8358 14.3358 12.5 14.75 12.5H16.25C16.6642 12.5 17 12.8358 17 13.25C17 13.6642 16.6642 14 16.25 14H14.75C14.3358 14 14 13.6642 14 13.25Z" fill="black" fill-opacity="0.45"/>
</g>
</svg>
