<svg width="20" height="20" viewBox="0 0 20 20" fill="none" xmlns="http://www.w3.org/2000/svg">
<g id="&#230;&#163;&#128;&#231;&#180;&#162;&#229;&#153;&#168;">
<g id="Union">
<path d="M4.58325 5.6237C4.58325 5.0484 5.04962 4.58203 5.62492 4.58203H6.87492C7.2201 4.58203 7.49992 4.30221 7.49992 3.95703C7.49992 3.61185 7.2201 3.33203 6.87492 3.33203H5.62492C4.35927 3.33203 3.33325 4.35805 3.33325 5.6237V6.8737C3.33325 7.21888 3.61307 7.4987 3.95825 7.4987C4.30343 7.4987 4.58325 7.21888 4.58325 6.8737V5.6237Z" fill="black" fill-opacity="0.45"/>
<path fill-rule="evenodd" clip-rule="evenodd" d="M6.66659 9.9987C6.66659 8.15775 8.15897 6.66536 9.99992 6.66536C11.8409 6.66536 13.3333 8.15775 13.3333 9.9987C13.3333 10.6933 13.1208 11.3383 12.7573 11.8722L14.8169 13.9318C15.0609 14.1758 15.0609 14.5716 14.8169 14.8156C14.5728 15.0597 14.1771 15.0597 13.933 14.8156L11.8734 12.7561C11.3395 13.1196 10.6945 13.332 9.99992 13.332C8.15897 13.332 6.66659 11.8396 6.66659 9.9987ZM9.99992 7.91536C8.84933 7.91536 7.91659 8.8481 7.91659 9.9987C7.91659 11.1493 8.84933 12.082 9.99992 12.082C11.1505 12.082 12.0833 11.1493 12.0833 9.9987C12.0833 8.8481 11.1505 7.91536 9.99992 7.91536Z" fill="black" fill-opacity="0.45"/>
<path d="M3.95825 12.4987C4.30343 12.4987 4.58325 12.7785 4.58325 13.1237V14.3737C4.58325 14.949 5.04962 15.4154 5.62492 15.4154H6.87492C7.2201 15.4154 7.49992 15.6952 7.49992 16.0404C7.49992 16.3855 7.2201 16.6654 6.87492 16.6654H5.62492C4.35927 16.6654 3.33325 15.6394 3.33325 14.3737V13.1237C3.33325 12.7785 3.61307 12.4987 3.95825 12.4987Z" fill="black" fill-opacity="0.45"/>
<path d="M13.1249 3.33203C12.7797 3.33203 12.4999 3.61185 12.4999 3.95703C12.4999 4.30221 12.7797 4.58203 13.1249 4.58203H14.3749C14.9502 4.58203 15.4166 5.0484 15.4166 5.6237V6.8737C15.4166 7.21888 15.6964 7.4987 16.0416 7.4987C16.3868 7.4987 16.6666 7.21888 16.6666 6.8737V5.6237C16.6666 4.35805 15.6406 3.33203 14.3749 3.33203H13.1249Z" fill="black" fill-opacity="0.45"/>
</g>
</g>
</svg>
