<svg width="24" height="24" viewBox="0 0 24 24" fill="none" xmlns="http://www.w3.org/2000/svg">
<g id="&#230;&#150;&#135;&#230;&#156;&#172;&#229;&#136;&#134;&#229;&#137;&#178;">
<g id="Union">
<path d="M14 19.25C14 18.5 14.75 18.5 14.75 18.5L14.7641 18.4998C14.7767 18.4997 14.7966 18.4993 14.8228 18.4984C14.8755 18.4968 14.9527 18.4933 15.0461 18.4864C15.236 18.4724 15.4785 18.4448 15.7123 18.3929C15.9577 18.3383 16.1343 18.2695 16.2324 18.2041C16.2357 18.2019 16.2387 18.1998 16.2415 18.1979C16.2446 18.1957 16.2474 18.1938 16.25 18.1919V13H15.75C15.3357 13 15 12.6642 15 12.25C15 11.8358 15.3357 11.5 15.75 11.5H16.25V5.8081C16.245 5.80452 16.2392 5.80046 16.2324 5.79591C16.1343 5.73051 15.9577 5.66168 15.7123 5.60714C15.4785 5.5552 15.236 5.52764 15.0461 5.51358C14.9527 5.50666 14.8755 5.50325 14.8228 5.50158C14.7966 5.50074 14.7767 5.50035 14.7641 5.50016L14.75 5.5C14.3359 5.49984 14 5.16411 14 4.75C14 4.33579 14.3357 4 14.75 4L14.7542 4.00001L14.7618 4.00005L14.7863 4.00033C14.8067 4.00063 14.8352 4.00121 14.8704 4.00233C14.9408 4.00457 15.0394 4.00897 15.1569 4.01767C15.3889 4.03486 15.7089 4.0698 16.0377 4.14286C16.3339 4.2087 16.6903 4.31663 17 4.50661C17.3096 4.31663 17.666 4.2087 17.9623 4.14286C18.291 4.0698 18.611 4.03486 18.843 4.01767C18.9605 4.00897 19.0591 4.00457 19.1295 4.00233C19.1648 4.00121 19.1932 4.00063 19.2136 4.00033L19.2381 4.00005L19.2457 4.00001L19.25 4C19.6642 4 20 4.33579 20 4.75C20 5.16411 19.664 5.49984 19.25 5.5L19.2358 5.50016C19.2233 5.50035 19.2033 5.50074 19.1771 5.50158C19.1244 5.50325 19.0472 5.50666 18.9538 5.51358C18.7639 5.52764 18.5214 5.5552 18.2877 5.60714C18.0422 5.66168 17.8656 5.73051 17.7675 5.79591C17.7607 5.80046 17.7549 5.80452 17.75 5.8081V11.5H18.25C18.6642 11.5 19 11.8358 19 12.25C19 12.6642 18.6642 13 18.25 13H17.75V18.1919C17.7549 18.1955 17.7607 18.1995 17.7675 18.2041C17.8656 18.2695 18.0422 18.3383 18.2877 18.3929C18.5214 18.4448 18.7639 18.4724 18.9538 18.4864C19.0472 18.4933 19.1244 18.4968 19.1771 18.4984C19.2033 18.4993 19.2233 18.4997 19.2358 18.4998L19.25 18.5C19.25 18.5 20 18.5 20 19.25C20 20 19.2496 20 19.2496 20H19.2482L19.2457 20L19.2381 20L19.2136 19.9997C19.1932 19.9994 19.1648 19.9988 19.1295 19.9977C19.0591 19.9954 18.9605 19.991 18.843 19.9823C18.611 19.9651 18.291 19.9302 17.9623 19.8571C17.666 19.7913 17.3096 19.6834 17 19.4934C16.6903 19.6834 16.3339 19.7913 16.0377 19.8571C15.7089 19.9302 15.3889 19.9651 15.1569 19.9823C15.0394 19.991 14.9408 19.9954 14.8704 19.9977C14.8352 19.9988 14.8067 19.9994 14.7863 19.9997L14.7618 20L14.7542 20L14.7517 20H14.7503C14.7503 20 14 20 14 19.25Z" fill="black" fill-opacity="0.45"/>
<path fill-rule="evenodd" clip-rule="evenodd" d="M8.7005 7.48215C8.58947 7.19178 8.31083 7 7.99996 7C7.68909 7 7.41044 7.19178 7.29942 7.48215L4.04942 15.9821C3.90149 16.369 4.09521 16.8026 4.48211 16.9505C4.869 17.0985 5.30257 16.9047 5.4505 16.5179L6.41321 14H9.58671L10.5494 16.5179C10.6974 16.9047 11.1309 17.0985 11.5178 16.9505C11.9047 16.8026 12.0984 16.369 11.9505 15.9821L8.7005 7.48215ZM7.99996 9.85003L9.01318 12.5H6.98674L7.99996 9.85003Z" fill="black" fill-opacity="0.45"/>
</g>
</g>
</svg>
