<svg width="20" height="20" viewBox="0 0 20 20" fill="none" xmlns="http://www.w3.org/2000/svg">
<g id="&#229;&#183;&#165;&#229;&#133;&#183;&#231;&#174;&#177;">
<path id="Union" fill-rule="evenodd" clip-rule="evenodd" d="M5.50652 4.58203C5.40369 4.58203 5.31624 4.65705 5.30061 4.75869L3.33345 9.35793C3.33421 9.3272 3.33719 9.29702 3.34223 9.26754L4.06514 4.56861C4.17459 3.85719 4.78673 3.33203 5.50652 3.33203H6.04159C6.38676 3.33203 6.66659 3.61185 6.66659 3.95703C6.66659 4.30221 6.38676 4.58203 6.04159 4.58203H5.50652ZM5.30061 4.75869L3.33325 9.37606V14.3737C3.33325 15.6394 4.35927 16.6654 5.62492 16.6654H14.3749C15.6406 16.6654 16.6666 15.6394 16.6666 14.3737V9.37608C16.6666 9.37001 16.6665 9.36393 16.6664 9.35785C16.6656 9.32714 16.6626 9.29699 16.6576 9.26754L15.9347 4.56861C15.8252 3.85719 15.2131 3.33203 14.4933 3.33203H13.9583C13.6131 3.33203 13.3333 3.61185 13.3333 3.95703C13.3333 4.30221 13.6131 4.58203 13.9583 4.58203H14.4933C14.5961 4.58203 14.6836 4.65705 14.6992 4.75869L15.3131 8.7487H4.68676L5.30061 4.75869ZM4.58325 14.3737V9.9987H15.4166V14.3737C15.4166 14.949 14.9502 15.4154 14.3749 15.4154H5.62492C5.04962 15.4154 4.58325 14.949 4.58325 14.3737ZM8.74992 4.79036C8.74992 4.67531 8.84319 4.58203 8.95825 4.58203H11.0416C11.1566 4.58203 11.2499 4.67531 11.2499 4.79036V6.2487H8.74992V4.79036ZM12.4999 4.79036V6.2487H13.5416C13.8868 6.2487 14.1666 6.52852 14.1666 6.8737C14.1666 7.21888 13.8868 7.4987 13.5416 7.4987H6.45825C6.11307 7.4987 5.83325 7.21888 5.83325 6.8737C5.83325 6.52852 6.11307 6.2487 6.45825 6.2487H7.49992V4.79036C7.49992 3.98495 8.15284 3.33203 8.95825 3.33203H11.0416C11.847 3.33203 12.4999 3.98495 12.4999 4.79036Z" fill="black" fill-opacity="0.45"/>
</g>
</svg>
