<svg width="20" height="20" viewBox="0 0 20 20" fill="none" xmlns="http://www.w3.org/2000/svg">
<g id="&#229;&#183;&#165;&#229;&#133;&#183;">
<path id="Union" fill-rule="evenodd" clip-rule="evenodd" d="M12.4998 4.58203C10.889 4.58203 9.58314 5.88787 9.58314 7.4987C9.58314 7.95075 9.68554 8.37713 9.86784 8.75746C9.98246 8.99659 9.93369 9.28203 9.74617 9.46954L4.74513 14.4706C4.52897 14.6867 4.52897 15.0372 4.74513 15.2534C4.96129 15.4695 5.31175 15.4695 5.52791 15.2534L10.529 10.2523C10.7165 10.0648 11.0019 10.016 11.241 10.1307C11.6214 10.313 12.0477 10.4154 12.4998 10.4154C14.1106 10.4154 15.4165 9.10953 15.4165 7.4987C15.4165 7.38959 15.4105 7.28198 15.3989 7.17615L14.1751 8.39994C13.6056 8.96946 12.6822 8.96946 12.1127 8.39994L11.6116 7.89879C11.042 7.32928 11.042 6.40591 11.6116 5.8364L12.8457 4.60227C12.7324 4.58891 12.6169 4.58203 12.4998 4.58203ZM8.33314 7.4987C8.33314 5.19751 10.1986 3.33203 12.4998 3.33203C13.1428 3.33203 13.7535 3.47813 14.2988 3.73952C14.4817 3.82715 14.6106 3.99802 14.6448 4.19787C14.6789 4.39772 14.614 4.60171 14.4706 4.74507L12.4954 6.72028C12.4141 6.80164 12.4141 6.93355 12.4954 7.01491L12.9966 7.51606C13.0779 7.59742 13.2099 7.59742 13.2912 7.51606L15.2618 5.54546C15.4056 5.40167 15.6104 5.33682 15.8107 5.37163C16.0111 5.40643 16.182 5.53653 16.2688 5.72039C16.5241 6.26049 16.6665 6.86383 16.6665 7.4987C16.6665 9.79988 14.801 11.6654 12.4998 11.6654C12.0164 11.6654 11.5512 11.5828 11.1183 11.4307L6.41179 16.1373L5.96985 15.6953L6.41179 16.1373C5.70748 16.8416 4.56556 16.8416 3.86124 16.1373C3.15693 15.4329 3.15693 14.291 3.86124 13.5867L8.56779 8.88016C8.41572 8.4473 8.33314 7.98215 8.33314 7.4987Z" fill="black" fill-opacity="0.45"/>
</g>
</svg>
