<svg width="20" height="20" viewBox="0 0 20 20" fill="none" xmlns="http://www.w3.org/2000/svg">
<g id="&#233;&#128;&#154;&#231;&#148;&#168;&#229;&#183;&#165;&#229;&#133;&#183;">
<path id="Union" fill-rule="evenodd" clip-rule="evenodd" d="M9.74417 3.38671C9.90681 3.3138 10.0928 3.3138 10.2555 3.38671L16.2842 6.08923C16.3729 6.12665 16.4512 6.18396 16.5134 6.25558C16.6088 6.3653 16.6665 6.50859 16.6665 6.66536V13.3178C16.669 13.4293 16.6414 13.539 16.5881 13.6353C16.5271 13.7455 16.4323 13.8383 16.3104 13.8964C16.3047 13.8991 16.299 13.9017 16.2933 13.9042L10.2555 16.6108C10.0928 16.6837 9.90681 16.6837 9.74417 16.6108L3.70667 13.9044C3.69962 13.9013 3.69263 13.898 3.68572 13.8947C3.56619 13.8369 3.47306 13.7456 3.41258 13.6372C3.35863 13.5405 3.33067 13.4302 3.33316 13.3181V6.66536C3.33316 6.50857 3.3909 6.36526 3.48627 6.25554C3.51164 6.22631 3.5398 6.19936 3.57047 6.17511C3.6144 6.14032 3.66313 6.11131 3.71549 6.08922L9.74417 3.38671ZM9.37483 15.0754L4.58316 12.9274V7.63046L9.37483 9.77845V15.0754ZM10.6248 15.0754L15.4165 12.9274V7.63046L10.6248 9.77845V15.0754ZM5.48607 6.66536L9.99983 8.68877L14.5136 6.66536L9.99983 4.64196L5.48607 6.66536Z" fill="black" fill-opacity="0.45"/>
</g>
</svg>
