<svg width="24" height="24" viewBox="0 0 24 24" fill="none" xmlns="http://www.w3.org/2000/svg">
<g id="&#229;&#144;&#145;&#233;&#135;&#143;&#229;&#173;&#152;&#229;&#130;&#168;">
<path id="Union" fill-rule="evenodd" clip-rule="evenodd" d="M4 6.75C4 5.23122 5.23122 4 6.75 4H10.8127C11.819 4 12.7451 4.54965 13.227 5.43322C13.2336 5.44532 13.2398 5.45761 13.2457 5.47006L13.9737 7H17.25C18.7688 7 20 8.23122 20 9.75V17.25C20 18.7688 18.7688 20 17.25 20H13.75C13.3358 20 13 19.6642 13 19.25C13 18.8358 13.3358 18.5 13.75 18.5H17.25C17.9404 18.5 18.5 17.9404 18.5 17.25V9.75C18.5 9.05964 17.9404 8.5 17.25 8.5H13.5167C13.5059 8.50023 13.4951 8.50023 13.4843 8.5H5.5V10.25C5.5 10.6642 5.16421 11 4.75 11C4.33579 11 4 10.6642 4 10.25V6.75ZM5.5 7H12.3126L11.9012 6.1354C11.6799 5.74327 11.2641 5.5 10.8127 5.5H6.75C6.05964 5.5 5.5 6.05964 5.5 6.75V7ZM6.75 14.5C6.33579 14.5 6 14.1642 6 13.75C6 13.3358 6.33579 13 6.75 13H10.25C10.6642 13 11 13.3358 11 13.75V17.25C11 17.6642 10.6642 18 10.25 18C9.83579 18 9.5 17.6642 9.5 17.25V15.5607L5.28033 19.7803C4.98744 20.0732 4.51256 20.0732 4.21967 19.7803C3.92678 19.4874 3.92678 19.0126 4.21967 18.7197L8.43934 14.5H6.75Z" fill="black" fill-opacity="0.45"/>
</g>
</svg>
