<svg width="20" height="20" viewBox="0 0 20 20" fill="none" xmlns="http://www.w3.org/2000/svg">
<g id="wrappers">
<path id="Union" fill-rule="evenodd" clip-rule="evenodd" d="M5.94765 3.5966C6.06476 3.4307 6.25517 3.33203 6.45825 3.33203H13.5418C13.7449 3.33203 13.9353 3.4307 14.0524 3.5966L16.2473 6.70611C16.5203 7.09275 16.6668 7.55441 16.6668 8.02768V14.3737C16.6668 15.6393 15.6408 16.6654 14.3751 16.6654H5.62492C4.35927 16.6654 3.33325 15.6393 3.33325 14.3737V8.02768C3.33325 7.55441 3.47978 7.09275 3.7527 6.70611L5.94765 3.5966ZM6.7821 4.58203L5.01739 7.08203H9.37492V4.58203H6.7821ZM10.6249 4.58203V7.08203H14.9826L13.2179 4.58203H10.6249ZM4.58325 14.3737V8.33203H15.4168V14.3737C15.4168 14.949 14.9504 15.4154 14.3751 15.4154H5.62492C5.04962 15.4154 4.58325 14.949 4.58325 14.3737Z" fill="black" fill-opacity="0.45"/>
</g>
</svg>
