<svg width="16" height="16" viewBox="0 0 16 16" fill="none" xmlns="http://www.w3.org/2000/svg">
<g id="&#229;&#145;&#189;&#228;&#184;&#173;" clip-path="url(#clip0_827_12887)">
<path id="Vector" d="M8.6665 0.666016L8.66717 2.70736C11.0793 3.00845 12.9911 4.92044 13.2919 7.33268H15.3332V8.66602L13.2918 8.66668C12.9908 11.0786 11.0791 12.9903 8.66717 13.2913L8.6665 15.3327H7.33317V13.2914C4.92092 12.9906 3.00894 11.0788 2.70784 8.66668L0.666504 8.66602V7.33268H2.70776C3.00858 4.92021 4.9207 3.0081 7.33317 2.70728V0.666016H8.6665ZM7.99984 3.99935C5.7907 3.99935 3.99984 5.79021 3.99984 7.99935C3.99984 10.2085 5.7907 11.9993 7.99984 11.9993C10.209 11.9993 11.9998 10.2085 11.9998 7.99935C11.9998 5.79021 10.209 3.99935 7.99984 3.99935ZM7.99984 6.66602C8.73624 6.66602 9.33317 7.26295 9.33317 7.99935C9.33317 8.73575 8.73624 9.33268 7.99984 9.33268C7.26344 9.33268 6.6665 8.73575 6.6665 7.99935C6.6665 7.26295 7.26344 6.66602 7.99984 6.66602Z" fill="black" fill-opacity="0.88"/>
</g>
<defs>
<clipPath id="clip0_827_12887">
<rect width="16" height="16" fill="white"/>
</clipPath>
</defs>
</svg>
