<svg width="32" height="32" viewBox="0 0 32 32" fill="none" xmlns="http://www.w3.org/2000/svg">
<g id="&#232;&#135;&#170;&#229;&#138;&#168;" clip-path="url(#clip0_8394_85729)">
<g id="Group">
<path id="Vector" d="M15.9953 30.198C23.0644 30.198 28.7951 29.4817 28.7951 28.598H27.1951L21.8507 27.798L15.5226 28.598H11.6676L7.19512 26.998L3.19531 28.598C3.19531 29.4817 8.92606 30.198 15.9953 30.198Z" fill="url(#paint0_radial_8394_85729)"/>
<path id="Vector_2" d="M0.398438 13.3965C2.82844 13.3965 4.79844 15.3665 4.79844 17.7965C4.79844 20.2265 2.82844 22.1965 0.398438 22.1965L6.39844 24.9965C8.82844 24.9965 11.1984 20.2265 11.1984 17.7965C11.1984 15.3665 8.82837 11.3965 6.39838 11.3965L0.398438 13.3965Z" fill="url(#paint1_radial_8394_85729)"/>
<path id="Vector_3" d="M11.1969 1.79883C8.76687 1.79883 6.79688 3.76883 6.79688 6.19883C6.79688 6.47195 6.82187 6.73945 6.86937 6.99883L11.9969 8.99883C11.9494 8.73945 12.7969 6.07195 12.7969 5.79883C12.7969 3.36883 13.5669 1.79883 15.9969 1.79883H11.1969Z" fill="url(#paint2_radial_8394_85729)"/>
<path id="Vector_4" d="M-0.00390625 6.99805V13.4162H4.79609L7.19609 9.79805L4.79609 6.99805H-0.00390625Z" fill="url(#paint3_radial_8394_85729)"/>
<path id="Vector_5" d="M-0.00390625 22.1816V28.5998H4.79609L6.39609 25.7998L4.79609 22.1816H-0.00390625Z" fill="url(#paint4_radial_8394_85729)"/>
<path id="Vector_6" d="M11.1953 23.3988C13.6253 23.3988 15.5953 25.3688 15.5953 27.7988C15.5953 28.072 15.5703 28.3395 15.5228 28.5988H20.3228C20.3703 28.3395 23.1953 27.672 23.1953 27.3988C23.1953 24.9688 20.0253 21.7988 17.5953 21.7988L11.1953 23.3988Z" fill="url(#paint5_radial_8394_85729)"/>
<path id="Vector_7" d="M31.9969 17.7988C31.9969 20.2288 30.0269 22.1988 27.5969 22.1988C27.4619 22.1988 27.3288 22.1926 27.1969 22.1807V28.5988H20.3244C20.3719 28.3395 20.3969 28.072 20.3969 27.7988C20.3969 25.3688 18.4269 23.3988 15.9969 23.3988C13.5669 23.3988 11.5969 25.3688 11.5969 27.7988C11.5969 28.072 11.6219 28.3395 11.6694 28.5988H4.79688V22.1807C4.92875 22.1926 5.06187 22.1988 5.19687 22.1988C7.62687 22.1988 9.59688 20.2288 9.59688 17.7988C9.59688 15.3688 7.62687 13.3988 5.19687 13.3988C5.06187 13.3988 4.92875 13.4051 4.79688 13.417V6.99883H11.6694C11.6219 6.73945 11.5969 6.47195 11.5969 6.19883C11.5969 3.76883 13.5669 1.79883 15.9969 1.79883C18.4269 1.79883 20.3969 3.76883 20.3969 6.19883C20.3969 6.47195 20.3719 6.73945 20.3244 6.99883H27.1969V13.417C27.3288 13.4051 27.4619 13.3988 27.5969 13.3988C30.0269 13.3988 31.9969 15.3688 31.9969 17.7988Z" fill="url(#paint6_radial_8394_85729)"/>
<path id="Vector_8" d="M16.7958 17.5991L16.2852 15.8741L19.1108 13.0479C19.3964 12.7623 19.7708 12.6191 20.1452 12.6191H21.7333L16.7958 17.5991Z" fill="url(#paint7_radial_8394_85729)"/>
<path id="Vector_9" d="M17.0778 20.2009H15.4903C15.1159 20.2009 14.7416 20.0584 14.4559 19.7727L11.6234 16.9402C11.3378 16.6546 11.1953 16.2802 11.1953 15.9059C11.1953 15.5315 11.3378 15.1571 11.6234 14.8715C11.9091 14.5859 12.2834 14.4434 12.6578 14.4434H14.2459L17.0778 20.2009Z" fill="url(#paint8_radial_8394_85729)"/>
<path id="Vector_10" d="M17.0802 16.6677L15.2822 14.8698C14.711 14.2985 13.7848 14.2985 13.2136 14.8698C12.6423 15.441 12.6423 16.3671 13.2136 16.9384L16.0458 19.7706C16.6171 20.3419 17.5432 20.3419 18.1145 19.7706L22.7689 15.1162C23.3402 14.545 23.3402 13.6188 22.7689 13.0476C22.1977 12.4763 21.2715 12.4763 20.7003 13.0476L17.0802 16.6677Z" fill="url(#paint9_radial_8394_85729)"/>
</g>
</g>
<defs>
<radialGradient id="paint0_radial_8394_85729" cx="0" cy="0" r="1" gradientUnits="userSpaceOnUse" gradientTransform="translate(15.989 28.5171) scale(12.7099 1.55631)">
<stop stop-color="#B7EFFF"/>
<stop offset="0.2738" stop-color="#D8F6FF"/>
<stop offset="0.4962" stop-color="#EFFBFF"/>
<stop offset="0.888" stop-color="white"/>
</radialGradient>
<radialGradient id="paint1_radial_8394_85729" cx="0" cy="0" r="1" gradientUnits="userSpaceOnUse" gradientTransform="translate(6.1425 19.548) rotate(180) scale(12.2339 5.01591)">
<stop stop-color="#DCFCEE"/>
<stop offset="0.4303" stop-color="#D6F6FD"/>
<stop offset="1" stop-color="#68E7FD"/>
</radialGradient>
<radialGradient id="paint2_radial_8394_85729" cx="0" cy="0" r="1" gradientUnits="userSpaceOnUse" gradientTransform="translate(8.92475 2.1995) scale(10.6753 5.12415)">
<stop stop-color="#DCFCEE"/>
<stop offset="0.4303" stop-color="#D6F6FD"/>
<stop offset="1" stop-color="#68E7FD"/>
</radialGradient>
<radialGradient id="paint3_radial_8394_85729" cx="0" cy="0" r="1" gradientUnits="userSpaceOnUse" gradientTransform="translate(1.86947 7.63308) scale(10.0967 9.62214)">
<stop stop-color="#DCFCEE"/>
<stop offset="0.4303" stop-color="#D6F6FD"/>
<stop offset="1" stop-color="#68E7FD"/>
</radialGradient>
<radialGradient id="paint4_radial_8394_85729" cx="0" cy="0" r="1" gradientUnits="userSpaceOnUse" gradientTransform="translate(1.55759 21.4182) scale(8.05369)">
<stop stop-color="#DCFCEE"/>
<stop offset="0.4303" stop-color="#D6F6FD"/>
<stop offset="1" stop-color="#68E7FD"/>
</radialGradient>
<radialGradient id="paint5_radial_8394_85729" cx="0" cy="0" r="1" gradientUnits="userSpaceOnUse" gradientTransform="translate(16.5271 29.0732) scale(8.32356 5.52685)">
<stop stop-color="#DCFCEE"/>
<stop offset="0.4303" stop-color="#D6F6FD"/>
<stop offset="1" stop-color="#68E7FD"/>
</radialGradient>
<radialGradient id="paint6_radial_8394_85729" cx="0" cy="0" r="1" gradientUnits="userSpaceOnUse" gradientTransform="translate(27.9346 8.5262) scale(24.3883 24.3882)">
<stop stop-color="#68E7FD"/>
<stop offset="0.1745" stop-color="#44DFFD"/>
<stop offset="0.4715" stop-color="#00D1FD"/>
<stop offset="0.6138" stop-color="#00BDF1"/>
<stop offset="0.9042" stop-color="#0089D2"/>
<stop offset="0.9923" stop-color="#0078C8"/>
</radialGradient>
<radialGradient id="paint7_radial_8394_85729" cx="0" cy="0" r="1" gradientUnits="userSpaceOnUse" gradientTransform="translate(19.8692 12.7562) scale(5.25812 5.25813)">
<stop stop-color="#FFFBE5"/>
<stop offset="0.4013" stop-color="#DDF7C5"/>
<stop offset="0.5036" stop-color="#DAF7C1"/>
<stop offset="0.6105" stop-color="#D3F5B4"/>
<stop offset="0.7196" stop-color="#C7F39F"/>
<stop offset="0.8294" stop-color="#B7F082"/>
<stop offset="0.9271" stop-color="#A4ED62"/>
</radialGradient>
<radialGradient id="paint8_radial_8394_85729" cx="0" cy="0" r="1" gradientUnits="userSpaceOnUse" gradientTransform="translate(12.0122 14.9848) scale(10.444 5.70242)">
<stop stop-color="#FFFBE5"/>
<stop offset="0.4013" stop-color="#DDF7C5"/>
<stop offset="0.5036" stop-color="#DAF7C1"/>
<stop offset="0.6105" stop-color="#D3F5B4"/>
<stop offset="0.7196" stop-color="#C7F39F"/>
<stop offset="0.8294" stop-color="#B7F082"/>
<stop offset="0.9271" stop-color="#A4ED62"/>
</radialGradient>
<radialGradient id="paint9_radial_8394_85729" cx="0" cy="0" r="1" gradientUnits="userSpaceOnUse" gradientTransform="translate(20.7166 21.3203) rotate(135) scale(14.2605 9.60115)">
<stop stop-color="#C4F19B"/>
<stop offset="0.1467" stop-color="#AEEE6C"/>
<stop offset="0.4558" stop-color="#7BE700"/>
<stop offset="0.5416" stop-color="#6EDC0F"/>
<stop offset="0.7076" stop-color="#4ABE37"/>
<stop offset="0.9351" stop-color="#118F77"/>
<stop offset="1" stop-color="#00818B"/>
</radialGradient>
<clipPath id="clip0_8394_85729">
<rect width="32" height="32" fill="white"/>
</clipPath>
</defs>
</svg>
