<svg width="16" height="16" viewBox="0 0 16 16" fill="none" xmlns="http://www.w3.org/2000/svg">
<g id="Button Close">
<g clip-path="url(#clip0_2228_67660)">
<g id="Close">
<path id="Vector" fill-rule="evenodd" clip-rule="evenodd" d="M13.1416 1.82822C13.142 1.82822 13.1423 1.82858 13.143 1.82929L14.1732 2.85965C14.1739 2.86018 14.1741 2.86054 14.1743 2.86108C14.1744 2.86143 14.1744 2.8618 14.1743 2.86215C14.1743 2.86268 14.1739 2.86304 14.1732 2.86375L9.03572 8.00125L14.1732 13.1388C14.1739 13.1395 14.1741 13.1398 14.1743 13.1404C14.1744 13.1408 14.1744 13.1412 14.1743 13.1416C14.1743 13.142 14.1739 13.1423 14.1732 13.143L13.1429 14.1732C13.1423 14.1739 13.142 14.1741 13.1416 14.1743C13.1412 14.1744 13.1408 14.1744 13.1404 14.1743C13.1398 14.1743 13.1395 14.1739 13.1388 14.1732L8.00125 9.03572L2.86375 14.1732C2.86304 14.1739 2.86268 14.1741 2.86215 14.1743C2.86174 14.1744 2.8613 14.1744 2.8609 14.1743C2.86054 14.1743 2.86018 14.1739 2.85947 14.1732L1.82929 13.1429C1.82858 13.1423 1.8284 13.142 1.82822 13.1416C1.82809 13.1412 1.82809 13.1408 1.82822 13.1404C1.82822 13.1398 1.82858 13.1395 1.82929 13.1388L6.96679 8.00125L1.82929 2.86375C1.82858 2.86304 1.8284 2.86268 1.82822 2.86215C1.82809 2.86174 1.82809 2.8613 1.82822 2.8609C1.82822 2.86054 1.82858 2.86018 1.82929 2.85947L2.85965 1.82929C2.86018 1.82858 2.86054 1.8284 2.8609 1.82822C2.8613 1.82809 2.86174 1.82809 2.86215 1.82822C2.86268 1.82822 2.86304 1.82858 2.86375 1.82929L8.00125 6.96679L13.1388 1.82929C13.1395 1.82858 13.1398 1.8284 13.1404 1.82822C13.1408 1.82809 13.1412 1.82809 13.1416 1.82822Z" fill="black" fill-opacity="0.45"/>
</g>
</g>
</g>
<defs>
<clipPath id="clip0_2228_67660">
<path d="M0 4C0 1.79086 1.79086 0 4 0H12C14.2091 0 16 1.79086 16 4V12C16 14.2091 14.2091 16 12 16H4C1.79086 16 0 14.2091 0 12V4Z" fill="white"/>
</clipPath>
</defs>
</svg>
