<svg width="24" height="24" viewBox="0 0 24 24" fill="none" xmlns="http://www.w3.org/2000/svg">
<path fill-rule="evenodd" clip-rule="evenodd" d="M6.14969 0H14.1767L20.9759 7.09344V20.8744C20.9759 22.5996 19.5755 24 17.8503 24H6.14969C4.42453 24 3.02411 22.5996 3.02411 20.8744V3.12558C3.02411 1.40042 4.42453 0 6.14969 0Z" fill="#0AC963"/>
<path opacity="0.302" fill-rule="evenodd" clip-rule="evenodd" d="M14.1666 0V7.03255H20.9759L14.1666 0Z" fill="white"/>
<path fill-rule="evenodd" clip-rule="evenodd" d="M15.0495 11.9949H8.95056C8.49391 11.9949 8.11841 12.3704 8.11841 12.8271V16.7036C8.11841 17.1603 8.49388 17.5358 8.95056 17.5358H15.0495C15.5061 17.5358 15.8715 17.1603 15.8715 16.7036V12.8271C15.8715 12.3704 15.5062 11.9949 15.0495 11.9949ZM10.6148 13.0402C11.1121 13.0402 11.5078 13.4461 11.5078 13.9332C11.5078 14.4304 11.1121 14.8363 10.6148 14.8363C10.1176 14.8363 9.71166 14.4304 9.71166 13.9332C9.71166 13.4461 10.1176 13.0402 10.6148 13.0402ZM15.3235 16.7036C15.3235 16.8558 15.2017 16.9877 15.0495 16.9877H8.95056C8.79833 16.9877 8.67655 16.8558 8.67655 16.7036V16.5412L9.78268 15.4351L10.696 16.3485C10.8076 16.4601 10.9801 16.4601 11.0918 16.3485L13.3852 14.055L15.3235 15.9933V16.7036Z" fill="white"/>
</svg>
