<svg width="24" height="24" viewBox="0 0 24 24" fill="none" xmlns="http://www.w3.org/2000/svg">
<path fill-rule="evenodd" clip-rule="evenodd" d="M6.14994 0H14.1739L20.9745 7.08846V20.8756C20.9745 22.6027 19.5772 24 17.8561 24H6.14994C4.42281 24 3.02551 22.6027 3.02551 20.8756V3.12443C3.02548 1.3973 4.42278 0 6.14994 0Z" fill="#6225E5"/>
<path opacity="0.302" fill-rule="evenodd" clip-rule="evenodd" d="M14.1679 0V7.03449H20.9745L14.1679 0Z" fill="white"/>
<path d="M8.66088 18.084C7.52688 18.084 6.56688 17.304 6.56688 15.792C6.56688 14.304 7.56288 13.452 8.69688 13.452C9.27888 13.452 9.74688 13.722 10.0529 14.034L9.48888 14.718C9.26688 14.514 9.03288 14.37 8.71488 14.37C8.13888 14.37 7.66488 14.886 7.66488 15.756C7.66488 16.644 8.07288 17.16 8.70288 17.16C9.05688 17.16 9.34488 16.98 9.55488 16.752L10.1189 17.424C9.74088 17.862 9.24288 18.084 8.66088 18.084ZM11.9596 18.084C11.3776 18.084 10.7536 17.868 10.2916 17.442L10.8976 16.704C11.2156 16.974 11.6296 17.16 11.9836 17.16C12.3796 17.16 12.5656 17.01 12.5656 16.77C12.5656 16.512 12.3196 16.428 11.9356 16.266L11.3656 16.026C10.8976 15.84 10.4596 15.45 10.4596 14.802C10.4596 14.052 11.1316 13.452 12.0796 13.452C12.5956 13.452 13.1416 13.65 13.5316 14.04L12.9976 14.712C12.7036 14.49 12.4276 14.37 12.0796 14.37C11.7496 14.37 11.5456 14.502 11.5456 14.742C11.5456 14.988 11.8276 15.084 12.2236 15.24L12.7816 15.462C13.3336 15.684 13.6636 16.056 13.6636 16.686C13.6636 17.43 13.0396 18.084 11.9596 18.084ZM15.1736 18L13.8356 13.536H14.9696L15.4796 15.57C15.6116 16.05 15.6956 16.512 15.8276 16.998H15.8576C15.9836 16.512 16.0796 16.05 16.2056 15.57L16.7096 13.536H17.8016L16.4576 18H15.1736Z" fill="white"/>
</svg>
