<svg width="24" height="24" viewBox="0 0 24 24" fill="none" xmlns="http://www.w3.org/2000/svg">
<path fill-rule="evenodd" clip-rule="evenodd" d="M6.14994 0H14.1739L20.9745 7.08846V20.8756C20.9745 22.6027 19.5772 24 17.8561 24H6.14994C4.42281 24 3.02551 22.6027 3.02551 20.8756V3.12443C3.02548 1.3973 4.42278 0 6.14994 0Z" fill="#E52598"/>
<path opacity="0.302" fill-rule="evenodd" clip-rule="evenodd" d="M14.1679 0V7.03449H20.9745L14.1679 0Z" fill="white"/>
<path d="M6.75156 19V15.017H7.76656L7.85056 15.521H7.87856C8.20756 15.192 8.55056 14.919 9.08956 14.919C9.64256 14.919 9.97856 15.15 10.1816 15.577C10.5246 15.227 10.8956 14.919 11.4276 14.919C12.2956 14.919 12.6736 15.542 12.6736 16.536V19H11.4276V16.69C11.4276 16.144 11.2876 15.983 10.9726 15.983C10.7906 15.983 10.5736 16.095 10.3356 16.34V19H9.08256V16.69C9.08256 16.144 8.94256 15.983 8.62756 15.983C8.44556 15.983 8.22856 16.095 7.99056 16.34V19H6.75156ZM15.077 19.098C14.083 19.098 13.446 18.307 13.446 17.012C13.446 15.703 14.265 14.919 15.091 14.919C15.532 14.919 15.791 15.08 16.05 15.332L16.001 14.737V13.407H17.254V19H16.239L16.148 18.615H16.12C15.84 18.895 15.455 19.098 15.077 19.098ZM15.406 18.076C15.644 18.076 15.833 17.999 16.001 17.74V16.172C15.812 15.997 15.595 15.934 15.385 15.934C15.042 15.934 14.727 16.256 14.727 16.991C14.727 17.754 14.979 18.076 15.406 18.076Z" fill="white"/>
</svg>
