<svg width="17" height="16" viewBox="0 0 17 16" fill="none" xmlns="http://www.w3.org/2000/svg">
<g id="&#230;&#155;&#180;&#229;&#164;&#154;">
<path id="Vector" d="M8.66671 2C7.93337 2 7.33337 2.6 7.33337 3.33333C7.33337 4.06667 7.93337 4.66667 8.66671 4.66667C9.40004 4.66667 10 4.06667 10 3.33333C10 2.6 9.40004 2 8.66671 2ZM8.66671 11.3333C7.93337 11.3333 7.33337 11.9333 7.33337 12.6667C7.33337 13.4 7.93337 14 8.66671 14C9.40004 14 10 13.4 10 12.6667C10 11.9333 9.40004 11.3333 8.66671 11.3333ZM8.66671 6.66667C7.93337 6.66667 7.33337 7.26667 7.33337 8C7.33337 8.73333 7.93337 9.33333 8.66671 9.33333C9.40004 9.33333 10 8.73333 10 8C10 7.26667 9.40004 6.66667 8.66671 6.66667Z" fill="black" fill-opacity="0.45"/>
</g>
</svg>
