<svg width="24" height="24" viewBox="0 0 24 24" fill="none" xmlns="http://www.w3.org/2000/svg">
<g id="star-smile-line">
<path id="Vector" d="M11.9976 0.5L16.2236 6.68342L23.4103 8.7918L18.8354 14.7217L19.051 22.2082L11.9976 19.6897L4.94421 22.2082L5.15984 14.7217L0.584961 8.7918L7.77164 6.68342L11.9976 0.5ZM11.9976 4.044L9.01991 8.40151L3.95464 9.887L7.17957 14.0655L7.02664 19.34L11.9976 17.566L16.9676 19.34L16.8157 14.0655L20.0396 9.887L14.9753 8.40151L11.9976 4.044ZM9.99764 12C9.99764 13.1046 10.893 14 11.9976 14C13.1022 14 13.9976 13.1046 13.9976 12H15.9976C15.9976 14.2091 14.2068 16 11.9976 16C9.7885 16 7.99764 14.2091 7.99764 12H9.99764Z" fill=""/>
</g>
</svg>
