<svg width="12" height="12" viewBox="0 0 12 12" fill="none" xmlns="http://www.w3.org/2000/svg">
<g id="Icon / FileTextOutlined">
<path id="Vector" d="M10.0148 3.38203L7.49297 0.860156C7.42266 0.789844 7.32773 0.75 7.22812 0.75H2.25C2.04258 0.75 1.875 0.917578 1.875 1.125V10.875C1.875 11.0824 2.04258 11.25 2.25 11.25H9.75C9.95742 11.25 10.125 11.0824 10.125 10.875V3.64805C10.125 3.54844 10.0852 3.45234 10.0148 3.38203ZM9.26016 3.82031H7.05469V1.61484L9.26016 3.82031ZM9.28125 10.4062H2.71875V1.59375H6.25781V4.125C6.25781 4.25554 6.30967 4.38073 6.40197 4.47303C6.49427 4.56533 6.61946 4.61719 6.75 4.61719H9.28125V10.4062ZM5.90625 7.24219H3.75C3.69844 7.24219 3.65625 7.28438 3.65625 7.33594V7.89844C3.65625 7.95 3.69844 7.99219 3.75 7.99219H5.90625C5.95781 7.99219 6 7.95 6 7.89844V7.33594C6 7.28438 5.95781 7.24219 5.90625 7.24219ZM3.65625 5.74219V6.30469C3.65625 6.35625 3.69844 6.39844 3.75 6.39844H8.25C8.30156 6.39844 8.34375 6.35625 8.34375 6.30469V5.74219C8.34375 5.69063 8.30156 5.64844 8.25 5.64844H3.75C3.69844 5.64844 3.65625 5.69063 3.65625 5.74219Z" fill="black" fill-opacity="0.45"/>
</g>
</svg>
