<?xml version="1.0" standalone="no"?>
<svg id="类型=1" width="360" height="182" viewBox="0 0 360 182" fill="none" xmlns="http://www.w3.org/2000/svg" style="max-width: 100%; max-height: 100%;">
<g clip-path="url(#clip0_4837_16448)">
<path d="M0 40C0 21.1438 0 11.7157 5.85786 5.85786C11.7157 0 21.1438 0 40 0H320C338.856 0 348.284 0 354.142 5.85786C360 11.7157 360 21.1438 360 40V142C360 160.856 360 170.284 354.142 176.142C348.284 182 338.856 182 320 182H40C21.1438 182 11.7157 182 5.85786 176.142C0 170.284 0 160.856 0 142V40Z" fill="url(#paint0_linear_4837_16448)" stroke-dasharray="0,0,502.866796875,544.77236328125"><animate attributeType="XML" attributeName="stroke-dasharray" repeatCount="indefinite" dur="5s" values="0,0,502.866796875,544.77236328125; 
          0,544.77236328125,502.866796875,0; 
          502.866796875,544.77236328125,0,0" keyTimes="0; 0.52; 1"></animate></path>
<g opacity="0.7" filter="url(#filter0_f_4837_16448)">
<path d="M6 -46C13 -35.5 23.7474 8.68168 28 43.5C36 109 92 146 175 60.5C275.476 -43.0028 349.713 128.191 371.5 196C416 334.5 660 116.5 723.5 116.5" stroke="url(#paint1_linear_4837_16448)" stroke-width="80" stroke-dasharray="0,0,477.91013671875,517.7359814453125"><animate attributeType="XML" attributeName="stroke-dasharray" repeatCount="indefinite" dur="5s" values="0,0,477.91013671875,517.7359814453125; 
          0,517.7359814453125,477.91013671875,0; 
          477.91013671875,517.7359814453125,0,0" keyTimes="0; 0.52; 1"></animate></path>
</g>
<g filter="url(#filter1_bi_4837_16448)">
<path d="M0 40C0 21.1438 0 11.7157 5.85786 5.85786C11.7157 0 21.1438 0 40 0H320C338.856 0 348.284 0 354.142 5.85786C360 11.7157 360 21.1438 360 40V142C360 160.856 360 170.284 354.142 176.142C348.284 182 338.856 182 320 182H40C21.1438 182 11.7157 182 5.85786 176.142C0 170.284 0 160.856 0 142V40Z" fill="url(#paint2_linear_4837_16448)" fill-opacity="0.6" stroke-dasharray="0,0,502.866796875,544.77236328125"><animate attributeType="XML" attributeName="stroke-dasharray" repeatCount="indefinite" dur="5s" values="0,0,502.866796875,544.77236328125; 
          0,544.77236328125,502.866796875,0; 
          502.866796875,544.77236328125,0,0" keyTimes="0; 0.52; 1"></animate></path>
<path d="M0 40C0 21.1438 0 11.7157 5.85786 5.85786C11.7157 0 21.1438 0 40 0H320C338.856 0 348.284 0 354.142 5.85786C360 11.7157 360 21.1438 360 40V142C360 160.856 360 170.284 354.142 176.142C348.284 182 338.856 182 320 182H40C21.1438 182 11.7157 182 5.85786 176.142C0 170.284 0 160.856 0 142V40Z" fill="url(#paint3_linear_4837_16448)" stroke-dasharray="0,0,502.866796875,544.77236328125"><animate attributeType="XML" attributeName="stroke-dasharray" repeatCount="indefinite" dur="5s" values="0,0,502.866796875,544.77236328125; 
          0,544.77236328125,502.866796875,0; 
          502.866796875,544.77236328125,0,0" keyTimes="0; 0.52; 1"></animate></path>
<path d="M0.5 40C0.5 30.5578 0.501062 23.5264 1.22777 18.1212C1.95255 12.7304 3.39087 9.03197 6.21142 6.21142C9.03197 3.39087 12.7304 1.95255 18.1212 1.22777C23.5264 0.501062 30.5578 0.5 40 0.5H320C329.442 0.5 336.474 0.501062 341.879 1.22777C347.27 1.95255 350.968 3.39087 353.789 6.21142C356.609 9.03197 358.047 12.7304 358.772 18.1212C359.499 23.5264 359.5 30.5578 359.5 40V142C359.5 151.442 359.499 158.474 358.772 163.879C358.047 169.27 356.609 172.968 353.789 175.789C350.968 178.609 347.27 180.047 341.879 180.772C336.474 181.499 329.442 181.5 320 181.5H40C30.5578 181.5 23.5264 181.499 18.1212 180.772C12.7304 180.047 9.03197 178.609 6.21142 175.789C3.39087 172.968 1.95255 169.27 1.22777 163.879C0.501062 158.474 0.5 151.442 0.5 142V40Z" stroke="url(#paint4_radial_4837_16448)" stroke-dasharray="0,0,501.3590625,543.1389843750001"><animate attributeType="XML" attributeName="stroke-dasharray" repeatCount="indefinite" dur="5s" values="0,0,501.3590625,543.1389843750001; 
          0,543.1389843750001,501.3590625,0; 
          501.3590625,543.1389843750001,0,0" keyTimes="0; 0.52; 1"></animate></path>
</g>
</g>
<defs>
<filter id="filter0_f_4837_16448" x="-148.098" y="-188.188" width="991.781" height="590.247" filterUnits="userSpaceOnUse" color-interpolation-filters="sRGB">
<feFlood flood-opacity="0" result="BackgroundImageFix"></feFlood>
<feBlend mode="normal" in="SourceGraphic" in2="BackgroundImageFix" result="shape"></feBlend>
<feGaussianBlur stdDeviation="60" result="effect1_foregroundBlur_4837_16448"></feGaussianBlur>
</filter>
<filter id="filter1_bi_4837_16448" x="-3" y="-3" width="366" height="188" filterUnits="userSpaceOnUse" color-interpolation-filters="sRGB">
<feFlood flood-opacity="0" result="BackgroundImageFix"></feFlood>
<feGaussianBlur in="BackgroundImageFix" stdDeviation="1.5"></feGaussianBlur>
<feComposite in2="SourceAlpha" operator="in" result="effect1_backgroundBlur_4837_16448"></feComposite>
<feBlend mode="normal" in="SourceGraphic" in2="effect1_backgroundBlur_4837_16448" result="shape"></feBlend>
<feColorMatrix in="SourceAlpha" type="matrix" values="0 0 0 0 0 0 0 0 0 0 0 0 0 0 0 0 0 0 127 0" result="hardAlpha"></feColorMatrix>
<feOffset dy="0.5"></feOffset>
<feGaussianBlur stdDeviation="1"></feGaussianBlur>
<feComposite in2="hardAlpha" operator="arithmetic" k2="-1" k3="1"></feComposite>
<feColorMatrix type="matrix" values="0 0 0 0 1 0 0 0 0 1 0 0 0 0 1 0 0 0 0.4 0"></feColorMatrix>
<feBlend mode="normal" in2="shape" result="effect2_innerShadow_4837_16448"></feBlend>
</filter>
<linearGradient id="paint0_linear_4837_16448" x1="0" y1="0" x2="142.899" y2="282.657" gradientUnits="userSpaceOnUse">
<stop stop-color="#0699EB"></stop>
<stop offset="1" stop-color="#2043FD"></stop>
</linearGradient>
<linearGradient id="paint1_linear_4837_16448" x1="-7.5" y1="-0.500053" x2="727.782" y2="38.625" gradientUnits="userSpaceOnUse">
<stop stop-color="#0038FF"></stop>
<stop offset="0.310386" stop-color="#96FFCD"></stop>
<stop offset="0.690494" stop-color="#CC00FF"></stop>
<stop offset="1" stop-color="#FFD600"></stop>
</linearGradient>
<linearGradient id="paint2_linear_4837_16448" x1="429.034" y1="72.7576" x2="306.457" y2="80.4528" gradientUnits="userSpaceOnUse">
<stop stop-color="white"></stop>
<stop offset="1" stop-color="#EFEFEF" stop-opacity="0"></stop>
</linearGradient>
<linearGradient id="paint3_linear_4837_16448" x1="0" y1="0" x2="88.7417" y2="93.3048" gradientUnits="userSpaceOnUse">
<stop stop-color="white" stop-opacity="0.5"></stop>
<stop offset="1" stop-color="white" stop-opacity="0"></stop>
</linearGradient>
<radialGradient id="paint4_radial_4837_16448" cx="0" cy="0" r="1" gradientUnits="userSpaceOnUse" gradientTransform="translate(-44.3478 -34.0234) rotate(47.3202) scale(380.331 425.447)">
<stop stop-color="white" stop-opacity="0.75"></stop>
<stop offset="1" stop-color="white" stop-opacity="0"></stop>
</radialGradient>
<clipPath id="clip0_4837_16448">
<rect width="360" height="182" rx="20" fill="white" stroke-dasharray="0,0,503.44986328125,545.4040185546875"><animate attributeType="XML" attributeName="stroke-dasharray" repeatCount="indefinite" dur="5s" values="0,0,503.44986328125,545.4040185546875; 
          0,545.4040185546875,503.44986328125,0; 
          503.44986328125,545.4040185546875,0,0" keyTimes="0; 0.52; 1"></animate></rect>
</clipPath>
</defs>
</svg>