<svg width="24" height="24" viewBox="0 0 24 24" fill="none" xmlns="http://www.w3.org/2000/svg">
<g id="Embedding">
<path id="Vector_4" d="M20.0843 10.4999L21.2864 11.2212C21.5232 11.3633 21.5999 11.6704 21.4579 11.9072C21.4156 11.9776 21.3568 12.0365 21.2864 12.0787L12.001 17.6499L2.71548 12.0787C2.47869 11.9366 2.40191 11.6295 2.54398 11.3927C2.58621 11.3223 2.6451 11.2634 2.71548 11.2212L3.91757 10.4999L12.001 15.3499L20.0843 10.4999ZM20.0843 15.1999L21.2864 15.9212C21.5232 16.0633 21.5999 16.3704 21.4579 16.6072C21.4156 16.6776 21.3568 16.7365 21.2864 16.7787L12.5154 22.0412C12.1988 22.2313 11.8031 22.2313 11.4865 22.0412L2.71548 16.7787C2.47869 16.6366 2.40191 16.3295 2.54398 16.0927C2.58621 16.0223 2.6451 15.9634 2.71548 15.9212L3.91757 15.1999L12.001 20.0499L20.0843 15.1999ZM12.5154 1.30864L21.2864 6.5712C21.5232 6.71327 21.5999 7.0204 21.4579 7.25719C21.4156 7.32757 21.3568 7.38647 21.2864 7.42869L12.001 12.9999L2.71548 7.42869C2.47869 7.28662 2.40191 6.97949 2.54398 6.7427C2.58621 6.67232 2.6451 6.61343 2.71548 6.5712L11.4865 1.30864C11.8031 1.11864 12.1988 1.11864 12.5154 1.30864Z" fill="white"/>
</g>
</svg>
