<svg width="824" height="100" viewBox="0 0 824 100" fill="none" xmlns="http://www.w3.org/2000/svg">
<g id="&#231;&#155;&#145;&#230;&#142;&#167;&#232;&#131;&#140;&#230;&#153;&#175;">
<g clip-path="url(#clip0_7708_98007)">
<rect width="824" height="100" rx="20" fill="url(#paint0_radial_7708_98007)"/>
<g id="&#231;&#148;&#187;&#230;&#157;&#191; 2" clip-path="url(#clip1_7708_98007)" filter="url(#filter0_f_7708_98007)">
<path id="&#232;&#183;&#175;&#229;&#190;&#132;" fill-rule="evenodd" clip-rule="evenodd" d="M701.458 56.081L752.58 7L701.458 31.014L650.336 7L701.458 56.081Z" fill="url(#paint1_radial_7708_98007)"/>
<g id="&#232;&#146;&#153;&#231;&#137;&#136;&#229;&#136;&#134;&#231;&#187;&#132;" clip-path="url(#clip2_7708_98007)">
<path id="&#232;&#183;&#175;&#229;&#190;&#132;_2" fill-rule="evenodd" clip-rule="evenodd" d="M701.458 55.3319L650.336 7L701.458 97.9969V55.3319Z" fill="#86C3F0"/>
<mask id="mask0_7708_98007" style="mask-type:luminance" maskUnits="userSpaceOnUse" x="650" y="7" width="52" height="91">
<path id="&#232;&#183;&#175;&#229;&#190;&#132;_3" fill-rule="evenodd" clip-rule="evenodd" d="M701.458 55.3319L650.336 7L701.458 97.9969V55.3319Z" fill="white"/>
</mask>
<g mask="url(#mask0_7708_98007)">
<g id="&#232;&#183;&#175;&#229;&#190;&#132;_4" filter="url(#filter1_f_7708_98007)">
<path fill-rule="evenodd" clip-rule="evenodd" d="M666.136 37.5755C669.847 58.1306 677.025 74.0552 682.174 73.1255C687.324 72.1958 688.479 54.7666 684.768 34.2115C681.055 13.6458 673.88 -2.26819 668.73 -1.33847C663.581 -0.408755 662.423 17.0098 666.136 37.5755Z" fill="#EDD2B2"/>
</g>
<g id="&#232;&#183;&#175;&#229;&#190;&#132;_5" filter="url(#filter2_f_7708_98007)">
<path fill-rule="evenodd" clip-rule="evenodd" d="M661.918 63.9481C660.603 68.8557 667.969 75.089 678.361 77.8736C688.753 80.6581 698.249 78.9428 699.564 74.0352C700.879 69.1276 693.516 62.8838 683.124 60.0993C672.732 57.3147 663.233 59.0405 661.918 63.9481Z" fill="#32F0FA"/>
</g>
<g id="&#232;&#183;&#175;&#229;&#190;&#132;_6" filter="url(#filter3_f_7708_98007)">
<path fill-rule="evenodd" clip-rule="evenodd" d="M689.188 44.834C689.188 65.7214 694.225 82.6679 700.435 82.6679C706.644 82.6679 711.682 65.7214 711.682 44.834C711.682 23.9357 706.644 7 700.435 7C694.225 7 689.188 23.9357 689.188 44.834Z" fill="#228FF7"/>
</g>
</g>
</g>
<g id="&#232;&#146;&#153;&#231;&#137;&#136;&#229;&#136;&#134;&#231;&#187;&#132;_2" clip-path="url(#clip3_7708_98007)">
<path id="&#232;&#183;&#175;&#229;&#190;&#132;_7" fill-rule="evenodd" clip-rule="evenodd" d="M701.459 97.9969L752.581 7L701.459 55.3319V97.9969Z" fill="#8ECAF1"/>
<mask id="mask1_7708_98007" style="mask-type:luminance" maskUnits="userSpaceOnUse" x="701" y="7" width="52" height="91">
<path id="&#232;&#183;&#175;&#229;&#190;&#132;_8" fill-rule="evenodd" clip-rule="evenodd" d="M701.459 97.9969L752.581 7L701.459 55.3319V97.9969Z" fill="white"/>
</mask>
<g mask="url(#mask1_7708_98007)">
<g id="&#232;&#183;&#175;&#229;&#190;&#132;_9" filter="url(#filter4_f_7708_98007)">
<path fill-rule="evenodd" clip-rule="evenodd" d="M724.643 40.5649C720.874 59.1081 723.65 75.3149 730.842 76.7767C738.044 78.2406 746.928 64.4037 750.697 45.8605C754.464 27.3279 751.689 11.1104 744.487 9.64649C737.295 8.18473 728.409 22.0322 724.643 40.5649Z" fill="#85DCFF"/>
</g>
<g id="&#232;&#183;&#175;&#229;&#190;&#132;_10" filter="url(#filter5_f_7708_98007)">
<path fill-rule="evenodd" clip-rule="evenodd" d="M700.812 91.1676C704.405 94.7603 713.486 91.4977 721.094 83.8903C728.701 76.2829 731.964 67.2016 728.371 63.609C724.778 60.0163 715.69 63.2712 708.082 70.8786C700.475 78.486 697.22 87.575 700.812 91.1676Z" fill="#C187FF"/>
</g>
<g id="&#232;&#183;&#175;&#229;&#190;&#132;_11" filter="url(#filter6_f_7708_98007)">
<path fill-rule="evenodd" clip-rule="evenodd" d="M691.234 56.5876C691.234 72.6874 697.184 85.7257 704.522 85.7257C711.872 85.7257 717.821 72.6874 717.821 56.5876C717.821 40.4987 711.872 27.4495 704.522 27.4495C697.184 27.4495 691.234 40.4987 691.234 56.5876Z" fill="#2C92F6"/>
</g>
</g>
</g>
<g id="&#232;&#183;&#175;&#229;&#190;&#132; 3" clip-path="url(#clip4_7708_98007)">
<path id="&#232;&#183;&#175;&#229;&#190;&#132;_12" d="M650.848 7.51123L701.459 55.0615" stroke="url(#paint2_linear_7708_98007)" stroke-width="1.62843"/>
<path id="&#232;&#183;&#175;&#229;&#190;&#132;_13" d="M701.457 97.4877V55.0615" stroke="url(#paint3_linear_7708_98007)" stroke-width="1.62843"/>
<path id="&#232;&#183;&#175;&#229;&#190;&#132;_14" d="M701.457 55.0615L752.069 7.51123" stroke="url(#paint4_linear_7708_98007)" stroke-width="1.62843"/>
</g>
<path id="&#232;&#183;&#175;&#229;&#190;&#132;_15" d="M708.731 81.1539C692.975 85.3759 677.909 86.1089 666.299 83.902C654.647 81.6871 646.668 76.5599 644.707 69.239C642.746 61.9235 647.092 53.494 656.076 45.7483C665.026 38.0307 678.439 31.1301 694.196 26.9081C709.953 22.6861 725.017 21.9564 736.624 24.1653C748.274 26.3822 756.25 31.5101 758.211 38.8257C760.172 46.1467 755.829 54.5755 746.848 62.319C737.899 70.0346 724.488 76.9319 708.731 81.1539Z" stroke="url(#paint5_linear_7708_98007)" stroke-width="1.09639"/>
<g id="&#232;&#183;&#175;&#229;&#190;&#132;_16" filter="url(#filter7_f_7708_98007)">
<path fill-rule="evenodd" clip-rule="evenodd" d="M752.582 43.8098C752.582 46.6324 754.873 48.9231 757.695 48.9231C760.518 48.9231 762.809 46.6324 762.809 43.8098C762.809 40.9872 760.518 38.6965 757.695 38.6965C754.873 38.6965 752.582 40.9872 752.582 43.8098Z" fill="#72B9F7"/>
<path d="M757.695 48.3803C755.172 48.3803 753.125 46.3327 753.125 43.8098C753.125 41.287 755.172 39.2393 757.695 39.2393C760.218 39.2393 762.266 41.287 762.266 43.8098C762.266 46.3327 760.218 48.3803 757.695 48.3803Z" stroke="#A3CDFF" stroke-width="1.08562"/>
</g>
<g id="&#232;&#146;&#153;&#231;&#137;&#136;&#229;&#136;&#134;&#231;&#187;&#132;_3" clip-path="url(#clip5_7708_98007)">
<g id="&#232;&#183;&#175;&#229;&#190;&#132;_17" filter="url(#filter8_i_7708_98007)">
<path fill-rule="evenodd" clip-rule="evenodd" d="M635 71.9258C635 78.4178 640.265 83.6831 646.757 83.6831C653.249 83.6831 658.515 78.4178 658.515 71.9258C658.515 65.4337 653.249 60.1685 646.757 60.1685C640.265 60.1685 635 65.4337 635 71.9258Z" fill="url(#paint6_radial_7708_98007)"/>
</g>
<mask id="mask2_7708_98007" style="mask-type:luminance" maskUnits="userSpaceOnUse" x="635" y="60" width="24" height="24">
<path id="&#232;&#183;&#175;&#229;&#190;&#132;_18" fill-rule="evenodd" clip-rule="evenodd" d="M635 71.9258C635 78.4178 640.265 83.6831 646.757 83.6831C653.249 83.6831 658.515 78.4178 658.515 71.9258C658.515 65.4337 653.249 60.1685 646.757 60.1685C640.265 60.1685 635 65.4337 635 71.9258Z" fill="white"/>
</mask>
<g mask="url(#mask2_7708_98007)">
<g id="&#232;&#183;&#175;&#229;&#190;&#132;_19" filter="url(#filter9_f_7708_98007)">
<path fill-rule="evenodd" clip-rule="evenodd" d="M645.223 81.6394C645.223 85.0265 647.969 87.7732 651.356 87.7732C654.744 87.7732 657.49 85.0265 657.49 81.6394C657.49 78.2522 654.744 75.5056 651.356 75.5056C647.969 75.5056 645.223 78.2522 645.223 81.6394Z" fill="white"/>
</g>
<g id="&#232;&#183;&#175;&#229;&#190;&#132;_20" filter="url(#filter10_f_7708_98007)">
<path fill-rule="evenodd" clip-rule="evenodd" d="M631.932 60.1675C631.932 63.5546 634.678 66.3012 638.065 66.3012C641.453 66.3012 644.199 63.5546 644.199 60.1675C644.199 56.7803 641.453 54.0337 638.065 54.0337C634.678 54.0337 631.932 56.7803 631.932 60.1675Z" fill="white"/>
</g>
</g>
</g>
</g>
<g id="Ellipse 3" filter="url(#filter11_f_7708_98007)">
<ellipse cx="130.225" cy="23.0598" rx="130.225" ry="23.0598" transform="matrix(0.994807 -0.10178 0.533699 0.845675 0 26.5088)" fill="#B0E3FF"/>
</g>
<g id="Vector 1" filter="url(#filter12_f_7708_98007)">
<path d="M268.558 78.2526C301.85 71.2454 505.399 54.1176 540.244 22.0693C575.089 -9.9791 727.861 94.4888 631.669 111.985C536.273 129.336 235.265 85.2598 268.558 78.2526Z" fill="url(#paint7_linear_7708_98007)"/>
</g>
</g>
</g>
<defs>
<filter id="filter0_f_7708_98007" x="631" y="3" width="139.152" height="99" filterUnits="userSpaceOnUse" color-interpolation-filters="sRGB">
<feFlood flood-opacity="0" result="BackgroundImageFix"/>
<feBlend mode="normal" in="SourceGraphic" in2="BackgroundImageFix" result="shape"/>
<feGaussianBlur stdDeviation="2" result="effect1_foregroundBlur_7708_98007"/>
</filter>
<filter id="filter1_f_7708_98007" x="647.73" y="-17.6079" width="55.4418" height="107.003" filterUnits="userSpaceOnUse" color-interpolation-filters="sRGB">
<feFlood flood-opacity="0" result="BackgroundImageFix"/>
<feBlend mode="normal" in="SourceGraphic" in2="BackgroundImageFix" result="shape"/>
<feGaussianBlur stdDeviation="8.11533" result="effect1_foregroundBlur_7708_98007"/>
</filter>
<filter id="filter2_f_7708_98007" x="641.108" y="38.1106" width="79.2656" height="61.7541" filterUnits="userSpaceOnUse" color-interpolation-filters="sRGB">
<feFlood flood-opacity="0" result="BackgroundImageFix"/>
<feBlend mode="normal" in="SourceGraphic" in2="BackgroundImageFix" result="shape"/>
<feGaussianBlur stdDeviation="10.3286" result="effect1_foregroundBlur_7708_98007"/>
</filter>
<filter id="filter3_f_7708_98007" x="665.579" y="-16.6082" width="69.7106" height="122.884" filterUnits="userSpaceOnUse" color-interpolation-filters="sRGB">
<feFlood flood-opacity="0" result="BackgroundImageFix"/>
<feBlend mode="normal" in="SourceGraphic" in2="BackgroundImageFix" result="shape"/>
<feGaussianBlur stdDeviation="11.8041" result="effect1_foregroundBlur_7708_98007"/>
</filter>
<filter id="filter4_f_7708_98007" x="703.779" y="-9.64117" width="67.7794" height="105.706" filterUnits="userSpaceOnUse" color-interpolation-filters="sRGB">
<feFlood flood-opacity="0" result="BackgroundImageFix"/>
<feBlend mode="normal" in="SourceGraphic" in2="BackgroundImageFix" result="shape"/>
<feGaussianBlur stdDeviation="9.59085" result="effect1_foregroundBlur_7708_98007"/>
</filter>
<filter id="filter5_f_7708_98007" x="675.741" y="38.5385" width="77.6989" height="77.6982" filterUnits="userSpaceOnUse" color-interpolation-filters="sRGB">
<feFlood flood-opacity="0" result="BackgroundImageFix"/>
<feBlend mode="normal" in="SourceGraphic" in2="BackgroundImageFix" result="shape"/>
<feGaussianBlur stdDeviation="11.8041" result="effect1_foregroundBlur_7708_98007"/>
</filter>
<filter id="filter6_f_7708_98007" x="667.626" y="3.84122" width="73.8024" height="105.493" filterUnits="userSpaceOnUse" color-interpolation-filters="sRGB">
<feFlood flood-opacity="0" result="BackgroundImageFix"/>
<feBlend mode="normal" in="SourceGraphic" in2="BackgroundImageFix" result="shape"/>
<feGaussianBlur stdDeviation="11.8041" result="effect1_foregroundBlur_7708_98007"/>
</filter>
<filter id="filter7_f_7708_98007" x="749.631" y="35.7455" width="16.1286" height="16.1286" filterUnits="userSpaceOnUse" color-interpolation-filters="sRGB">
<feFlood flood-opacity="0" result="BackgroundImageFix"/>
<feBlend mode="normal" in="SourceGraphic" in2="BackgroundImageFix" result="shape"/>
<feGaussianBlur stdDeviation="1.47551" result="effect1_foregroundBlur_7708_98007"/>
</filter>
<filter id="filter8_i_7708_98007" x="635" y="60.1685" width="23.5137" height="25.6859" filterUnits="userSpaceOnUse" color-interpolation-filters="sRGB">
<feFlood flood-opacity="0" result="BackgroundImageFix"/>
<feBlend mode="normal" in="SourceGraphic" in2="BackgroundImageFix" result="shape"/>
<feColorMatrix in="SourceAlpha" type="matrix" values="0 0 0 0 0 0 0 0 0 0 0 0 0 0 0 0 0 0 127 0" result="hardAlpha"/>
<feOffset dy="2.17125"/>
<feGaussianBlur stdDeviation="1.08562"/>
<feComposite in2="hardAlpha" operator="arithmetic" k2="-1" k3="1"/>
<feColorMatrix type="matrix" values="0 0 0 0 1 0 0 0 0 1 0 0 0 0 1 0 0 0 0.25 0"/>
<feBlend mode="normal" in2="shape" result="effect1_innerShadow_7708_98007"/>
</filter>
<filter id="filter9_f_7708_98007" x="634.894" y="65.177" width="32.9248" height="32.9248" filterUnits="userSpaceOnUse" color-interpolation-filters="sRGB">
<feFlood flood-opacity="0" result="BackgroundImageFix"/>
<feBlend mode="normal" in="SourceGraphic" in2="BackgroundImageFix" result="shape"/>
<feGaussianBlur stdDeviation="5.1643" result="effect1_foregroundBlur_7708_98007"/>
</filter>
<filter id="filter10_f_7708_98007" x="621.603" y="43.7051" width="32.9248" height="32.9248" filterUnits="userSpaceOnUse" color-interpolation-filters="sRGB">
<feFlood flood-opacity="0" result="BackgroundImageFix"/>
<feBlend mode="normal" in="SourceGraphic" in2="BackgroundImageFix" result="shape"/>
<feGaussianBlur stdDeviation="5.1643" result="effect1_foregroundBlur_7708_98007"/>
</filter>
<filter id="filter11_f_7708_98007" x="-69.5411" y="-72.0819" width="422.795" height="209.675" filterUnits="userSpaceOnUse" color-interpolation-filters="sRGB">
<feFlood flood-opacity="0" result="BackgroundImageFix"/>
<feBlend mode="normal" in="SourceGraphic" in2="BackgroundImageFix" result="shape"/>
<feGaussianBlur stdDeviation="40.628" result="effect1_foregroundBlur_7708_98007"/>
</filter>
<filter id="filter12_f_7708_98007" x="184.744" y="-65.256" width="559.512" height="262.512" filterUnits="userSpaceOnUse" color-interpolation-filters="sRGB">
<feFlood flood-opacity="0" result="BackgroundImageFix"/>
<feBlend mode="normal" in="SourceGraphic" in2="BackgroundImageFix" result="shape"/>
<feGaussianBlur stdDeviation="40.628" result="effect1_foregroundBlur_7708_98007"/>
</filter>
<radialGradient id="paint0_radial_7708_98007" cx="0" cy="0" r="1" gradientUnits="userSpaceOnUse" gradientTransform="translate(-7.50002 138.776) rotate(-6.09413) scale(836.226 324.046)">
<stop stop-color="#0094FF"/>
<stop offset="0.600163" stop-color="#3DB1F2"/>
<stop offset="1" stop-color="#1E92FF"/>
</radialGradient>
<radialGradient id="paint1_radial_7708_98007" cx="0" cy="0" r="1" gradientUnits="userSpaceOnUse" gradientTransform="translate(701.458 31.5405) rotate(90) scale(24.5405 51.122)">
<stop stop-color="#3E9FF7"/>
<stop offset="1" stop-color="white"/>
</radialGradient>
<linearGradient id="paint2_linear_7708_98007" x1="663.501" y1="31.2864" x2="663.501" y2="55.0615" gradientUnits="userSpaceOnUse">
<stop stop-color="white"/>
<stop offset="1" stop-color="white" stop-opacity="0.01"/>
</linearGradient>
<linearGradient id="paint3_linear_7708_98007" x1="701.728" y1="76.2746" x2="701.728" y2="97.4877" gradientUnits="userSpaceOnUse">
<stop stop-color="white"/>
<stop offset="1" stop-color="white" stop-opacity="0.01"/>
</linearGradient>
<linearGradient id="paint4_linear_7708_98007" x1="714.11" y1="31.2864" x2="714.11" y2="55.0615" gradientUnits="userSpaceOnUse">
<stop stop-color="white"/>
<stop offset="1" stop-color="white" stop-opacity="0.01"/>
</linearGradient>
<linearGradient id="paint5_linear_7708_98007" x1="759.999" y1="69.3321" x2="748.049" y2="19.8657" gradientUnits="userSpaceOnUse">
<stop stop-color="white"/>
<stop offset="1" stop-color="white" stop-opacity="0.01"/>
</linearGradient>
<radialGradient id="paint6_radial_7708_98007" cx="0" cy="0" r="1" gradientUnits="userSpaceOnUse" gradientTransform="translate(646.757 71.9258) rotate(90) scale(17.6428 30.1691)">
<stop stop-color="#57ABFF"/>
<stop offset="1" stop-color="#F7F5FF"/>
</radialGradient>
<linearGradient id="paint7_linear_7708_98007" x1="464.5" y1="16" x2="464.5" y2="116" gradientUnits="userSpaceOnUse">
<stop stop-color="#00FF85"/>
<stop offset="1" stop-color="#6DC2FF"/>
</linearGradient>
<clipPath id="clip0_7708_98007">
<rect width="824" height="100" rx="20" fill="white"/>
</clipPath>
<clipPath id="clip1_7708_98007">
<rect width="131.153" height="91" fill="white" transform="translate(635 7)"/>
</clipPath>
<clipPath id="clip2_7708_98007">
<rect width="51.1236" height="91" fill="white" transform="translate(650.336 7)"/>
</clipPath>
<clipPath id="clip3_7708_98007">
<rect width="51.1236" height="91" fill="white" transform="translate(701.459 7)"/>
</clipPath>
<clipPath id="clip4_7708_98007">
<rect width="101.225" height="89.9775" fill="white" transform="translate(650.848 7.51123)"/>
</clipPath>
<clipPath id="clip5_7708_98007">
<rect width="23.5169" height="23.5169" fill="white" transform="translate(635 60.1685)"/>
</clipPath>
</defs>
</svg>
