<svg width="20" height="20" viewBox="0 0 20 20" fill="none" xmlns="http://www.w3.org/2000/svg">
<g id="&#229;&#136;&#160;&#233;&#153;&#164;">
<path id="Vector" d="M14.166 4.99984H18.3327V6.6665H16.666V17.4998C16.666 17.9601 16.2929 18.3332 15.8327 18.3332H4.16602C3.70578 18.3332 3.33268 17.9601 3.33268 17.4998V6.6665H1.66602V4.99984H5.83268V2.49984C5.83268 2.0396 6.20578 1.6665 6.66602 1.6665H13.3327C13.7929 1.6665 14.166 2.0396 14.166 2.49984V4.99984ZM14.9994 6.6665H4.99935V16.6665H14.9994V6.6665ZM7.49935 9.16651H9.16602V14.1665H7.49935V9.16651ZM10.8327 9.16651H12.4994V14.1665H10.8327V9.16651ZM7.49935 3.33317V4.99984H12.4994V3.33317H7.49935Z" fill="black" fill-opacity="0.45"/>
</g>
</svg>
