<svg width="16" height="16" viewBox="0 0 16 16" fill="none" xmlns="http://www.w3.org/2000/svg">
<g id="Embedding">
<path id="Vector" d="M13.3895 10.1333L14.1909 10.6142C14.3488 10.7089 14.3999 10.9136 14.3052 11.0715C14.277 11.1184 14.2378 11.1577 14.1909 11.1858L8.34357 14.6942C8.1325 14.8209 7.8687 14.8209 7.65764 14.6942L1.81032 11.1858C1.65246 11.0911 1.60128 10.8864 1.69599 10.7285C1.72414 10.6816 1.7634 10.6423 1.81032 10.6142L2.61172 10.1333L8.00064 13.3666L13.3895 10.1333ZM13.3895 6.99997L14.1909 7.48084C14.3488 7.57557 14.3999 7.78031 14.3052 7.93817C14.277 7.98511 14.2378 8.02437 14.1909 8.05251L8.00064 11.7666L1.81032 8.05251C1.65246 7.95777 1.60128 7.75304 1.69599 7.59517C1.72414 7.54824 1.7634 7.50897 1.81032 7.48084L2.61172 6.99997L8.00064 10.2333L13.3895 6.99997ZM8.34357 0.872466L14.1909 4.38084C14.3488 4.47555 14.3999 4.68031 14.3052 4.83817C14.277 4.88509 14.2378 4.92435 14.1909 4.9525L8.00064 8.66664L1.81032 4.9525C1.65246 4.85779 1.60128 4.65303 1.69599 4.49517C1.72414 4.44825 1.7634 4.40899 1.81032 4.38084L7.65764 0.872466C7.8687 0.745799 8.1325 0.745799 8.34357 0.872466ZM8.00064 2.22159L3.92547 4.66667L8.00064 7.11177L12.0758 4.66667L8.00064 2.22159Z" fill="black" fill-opacity="0.65"/>
</g>
</svg>
