<svg width="16" height="16" viewBox="0 0 16 16" fill="none" xmlns="http://www.w3.org/2000/svg">
<g id="&#230;&#150;&#135;&#228;&#187;&#182;&#229;&#155;&#190;&#230;&#160;&#135;">
<g id="Group">
<g id="Vrstva_x0020_1_14_">
<path id="Vector" fill-rule="evenodd" clip-rule="evenodd" d="M4.09617 0H9.44754L13.9824 4.72671V13.9195C13.9824 15.0655 13.0479 16 11.9019 16H4.09617C2.94524 16 2.01562 15.0655 2.01562 13.9195V2.08055C2.01562 0.929611 2.94524 0 4.09617 0Z" fill="#9900CC"/>
<g id="Group_2">
<path id="Vector_2" opacity="0.302" fill-rule="evenodd" clip-rule="evenodd" d="M9.44336 0V4.68737H13.9832L9.44336 0Z" fill="white"/>
<path id="Vector_3" d="M9.42807 10.5157C9.58054 10.2599 9.68384 9.9353 9.70351 9.61559C9.71336 9.409 9.66909 9.19259 9.57072 8.99093C9.41331 8.67124 9.14772 8.49417 8.88703 8.31709C8.6952 8.18921 8.51322 8.06625 8.38533 7.8941L8.36073 7.86458C8.28696 7.7613 8.19842 7.64326 8.18366 7.54488C8.17381 7.44651 8.08038 7.37766 7.98692 7.38257C7.88363 7.39242 7.80985 7.4711 7.80985 7.5744V10.9485C7.65244 10.8502 7.4557 10.7911 7.23929 10.7911C6.71792 10.7911 6.29492 11.1305 6.29492 11.5486C6.29492 11.9666 6.71792 12.306 7.23929 12.306C7.76066 12.306 8.18857 11.9666 8.18857 11.5486V9.34014C8.47384 9.45327 8.9362 9.72871 9.06406 10.373C9.03948 10.4075 9.01979 10.4468 8.9903 10.4763C8.92144 10.555 8.93126 10.6731 9.00997 10.7468C9.08867 10.8157 9.20671 10.8059 9.27556 10.7272C9.32475 10.6681 9.37393 10.6042 9.41327 10.5304C9.41823 10.5255 9.42314 10.5206 9.42807 10.5157Z" fill="white"/>
</g>
</g>
</g>
</g>
</svg>
