<svg width="24" height="24" viewBox="0 0 24 24" fill="none" xmlns="http://www.w3.org/2000/svg">
<g id="AI/00">
<path id="3" d="M14.9095 22.4401L13.25 20.7805C15.7717 18.6227 17.3757 15.4229 17.3757 11.8433C17.3757 8.4333 15.9159 5.37174 13.5981 3.22362L15.2617 1.56006C18.0042 4.13418 19.7268 7.78218 19.7268 11.84C19.7268 16.0691 17.8569 19.8535 14.9095 22.4401Z" fill="black" fill-opacity="0.45"/>
<path id="2" d="M10.4322 17.9616L8.72266 16.2523C10.2762 15.3935 11.3287 13.7406 11.3287 11.84C11.3287 10.1147 10.4604 8.59343 9.13798 7.68479L10.8167 6.00635C12.5564 7.35887 13.6805 9.46607 13.6805 11.84C13.6805 14.3867 12.3924 16.6317 10.4322 17.9616Z" fill="black" fill-opacity="0.45"/>
<path id="1" d="M4.27344 12.176C4.27344 13.1039 5.0256 13.8559 5.9532 13.8559C6.88152 13.8559 7.6332 13.1039 7.6332 12.176C7.6332 11.2479 6.88152 10.4961 5.9532 10.4961C5.02548 10.4961 4.27344 11.2479 4.27344 12.176Z" fill="black" fill-opacity="0.45"/>
</g>
</svg>
