<svg width="24" height="24" viewBox="0 0 24 24" fill="none" xmlns="http://www.w3.org/2000/svg">
<g id="&#231;&#148;&#168;&#230;&#136;&#183;/00">
<path id="3" d="M9.09052 22.4401L10.75 20.7805C8.22832 18.6227 6.62428 15.4229 6.62428 11.8433C6.62428 8.4333 8.08408 5.37174 10.4019 3.22362L8.73832 1.56006C5.99584 4.13418 4.27324 7.78218 4.27324 11.84C4.27324 16.0691 6.14308 19.8535 9.09052 22.4401Z" fill="black" fill-opacity="0.45"/>
<path id="2" d="M13.5678 17.9616L15.2773 16.2523C13.7238 15.3935 12.6713 13.7406 12.6713 11.84C12.6713 10.1147 13.5396 8.59343 14.862 7.68479L13.1833 6.00635C11.4436 7.35887 10.3195 9.46607 10.3195 11.84C10.3195 14.3867 11.6076 16.6317 13.5678 17.9616Z" fill="black" fill-opacity="0.45"/>
<path id="1" d="M19.7266 12.176C19.7266 13.1039 18.9744 13.8559 18.0468 13.8559C17.1185 13.8559 16.3668 13.1039 16.3668 12.176C16.3668 11.2479 17.1185 10.4961 18.0468 10.4961C18.9745 10.4961 19.7266 11.2479 19.7266 12.176Z" fill="black" fill-opacity="0.45"/>
</g>
</svg>
