<svg width="16" height="16" viewBox="0 0 16 16" fill="none" xmlns="http://www.w3.org/2000/svg">
<g id="&#228;&#184;&#138;&#228;&#188;&#160;&#230;&#150;&#135;&#228;&#187;&#182;">
<rect width="16" height="16" fill="white"/>
<g id="paperclip-1--attachment-link-paperclip-unlink">
<path id="Vector (Stroke)" fill-rule="evenodd" clip-rule="evenodd" d="M10.2705 2.76222C10.1241 2.76229 9.97906 2.79136 9.84387 2.84775C9.70869 2.90414 9.58601 2.98675 9.48292 3.09079L9.48101 3.09174L3.70101 8.88984C3.40852 9.18805 3.24484 9.58919 3.24519 10.0069C3.24555 10.4246 3.40992 10.8255 3.70292 11.1232L5.32673 12.7746C5.54397 12.9951 5.82222 13.1456 6.12568 13.2067C6.42913 13.2678 6.74393 13.2367 7.02959 13.1175C7.22006 13.0384 7.39149 12.9213 7.5353 12.7746L7.53816 12.7727L12.9639 7.30032C13.0974 7.16581 13.2788 7.08985 13.4683 7.08913C13.6578 7.08842 13.8398 7.16301 13.9743 7.29651C14.1088 7.43 14.1848 7.61145 14.1855 7.80095C14.1862 7.99046 14.1116 8.17248 13.9782 8.30698L8.5553 13.7756L8.55339 13.7765C8.27645 14.0585 7.94609 14.2825 7.5816 14.4355C7.21711 14.5884 6.82581 14.6672 6.43054 14.6672C6.03527 14.6672 5.64396 14.5884 5.27948 14.4355C4.91499 14.2825 4.58462 14.0585 4.30768 13.7765L2.68482 12.126C2.12832 11.5607 1.81641 10.7993 1.81641 10.006C1.81641 9.21277 2.12832 8.45133 2.68482 7.88603L2.68768 7.88317L8.46863 2.08412C8.70456 1.84642 8.9852 1.65776 9.29438 1.52901C9.60355 1.40027 9.93515 1.33398 10.2701 1.33398C10.605 1.33398 10.9366 1.40027 11.2457 1.52901C11.5549 1.65776 11.8356 1.84642 12.0715 2.08412L12.7163 2.72793V2.72889C12.954 2.96467 13.1427 3.24518 13.2715 3.55424C13.4003 3.8633 13.4667 4.19481 13.4668 4.52964C13.4669 4.86447 13.4007 5.19601 13.272 5.50514C13.1434 5.81427 12.9548 6.09488 12.7172 6.33079L12.7163 6.33174L7.5953 11.4708L7.59435 11.4717C7.44315 11.624 7.26332 11.7449 7.06522 11.8273C6.86711 11.9098 6.65465 11.9523 6.44006 11.9523C6.22548 11.9523 6.01301 11.9098 5.81491 11.8273C5.6168 11.7449 5.43697 11.624 5.28578 11.4717L5.28101 11.466L4.96578 11.1422C4.81439 10.9908 4.6944 10.8109 4.61268 10.613C4.53095 10.4151 4.48912 10.203 4.48956 9.98885C4.49 9.77472 4.53272 9.56278 4.61525 9.3652C4.69779 9.16762 4.81853 8.98827 4.97054 8.83746L8.40863 5.42793C8.54451 5.30223 8.72387 5.23418 8.90893 5.23813C9.09399 5.24207 9.27029 5.3177 9.40069 5.44908C9.53108 5.58046 9.60538 5.75733 9.60793 5.94242C9.61047 6.1275 9.54107 6.30635 9.41435 6.44127L5.97625 9.85174C5.95774 9.87015 5.94304 9.89204 5.93302 9.91615C5.92299 9.94026 5.91783 9.96611 5.91783 9.99222C5.91783 10.0183 5.92299 10.0442 5.93302 10.0683C5.94304 10.0924 5.95774 10.1143 5.97625 10.1327L5.98578 10.1422L6.30197 10.466C6.32034 10.4843 6.34214 10.4988 6.36611 10.5086C6.39009 10.5185 6.41577 10.5235 6.44169 10.5234C6.46761 10.5233 6.49325 10.5181 6.51716 10.5081C6.54107 10.4981 6.56277 10.4835 6.58101 10.4651V10.4641L11.7067 5.32127L11.7096 5.31746C11.8134 5.21425 11.8958 5.09154 11.9521 4.95637C12.0083 4.82119 12.0372 4.67624 12.0372 4.52984C12.0372 4.38344 12.0083 4.23848 11.9521 4.10331C11.8958 3.96814 11.8134 3.84542 11.7096 3.74222L11.7077 3.74032L11.0601 3.0927L11.0582 3.09079C10.9551 2.98675 10.8324 2.90414 10.6972 2.84775C10.562 2.79136 10.417 2.76229 10.2705 2.76222Z" fill="#1677FF"/>
</g>
</g>
</svg>
