<svg width="16" height="16" viewBox="0 0 16 16" fill="none" xmlns="http://www.w3.org/2000/svg">
<g id="&#229;&#164;&#154;&#230;&#168;&#161;&#230;&#128;&#129;">
<path id="Vector" d="M10 5.33398V2.66732H3.33333V13.334H12.6667V5.33398H10ZM2 1.99518C2 1.63002 2.29833 1.33398 2.66567 1.33398H10.6667L13.9998 4.66732L14 13.9957C14 14.3666 13.7034 14.6673 13.3377 14.6673H2.66227C2.29651 14.6673 2 14.3638 2 14.0061V1.99518ZM7.33333 6.33398C7.33333 6.88625 6.8856 7.33398 6.33333 7.33398C5.78105 7.33398 5.33333 6.88625 5.33333 6.33398C5.33333 5.7817 5.78105 5.33398 6.33333 5.33398C6.8856 5.33398 7.33333 5.7817 7.33333 6.33398ZM11.6667 11.334L9 6.66732L5.33333 11.334H11.6667Z" fill="black" fill-opacity="0.88"/>
</g>
</svg>
