<svg width="20" height="20" viewBox="0 0 20 20" fill="none" xmlns="http://www.w3.org/2000/svg">
<g id="&#232;&#175;&#173;&#233;&#159;&#179;&#232;&#190;&#147;&#229;&#133;&#165;">
<path id="Vector" d="M9.99918 2.50016C8.61843 2.50016 7.49915 3.61945 7.49915 5.00016V8.3335C7.49915 9.71425 8.61843 10.8335 9.99918 10.8335C11.3798 10.8335 12.4992 9.71425 12.4992 8.3335V5.00016C12.4992 3.61945 11.3798 2.50016 9.99918 2.50016ZM9.99918 0.833496C12.3003 0.833496 14.1658 2.69898 14.1658 5.00016V8.3335C14.1658 10.6347 12.3003 12.5002 9.99918 12.5002C7.69796 12.5002 5.83248 10.6347 5.83248 8.3335V5.00016C5.83248 2.69898 7.69796 0.833496 9.99918 0.833496ZM2.54492 9.16683H4.22489C4.62925 11.9937 7.06042 14.1668 9.99918 14.1668C12.9378 14.1668 15.369 11.9937 15.7734 9.16683H17.4533C17.0691 12.6432 14.3088 15.4034 10.8325 15.7877V19.1668H9.16585V15.7877C5.68946 15.4034 2.92921 12.6432 2.54492 9.16683Z" fill="black" fill-opacity="0.45"/>
</g>
</svg>
