<svg width="674" height="1033" viewBox="0 0 674 1033" fill="none" xmlns="http://www.w3.org/2000/svg">
<g id="Group 481364">
<path id="Image" d="M1 8C1 3.58173 4.58172 0 9 0H665C669.418 0 673 3.58172 673 8V1024C673 1028.42 669.418 1032 665 1032H9.00001C4.58173 1032 1 1028.42 1 1024V8Z" fill="url(#paint0_linear_6708_19159)"/>
<g id="Aurora">
<path id="Vector 3" d="M672.999 1031.83L399.008 1001.54V916.463L672.999 1001.54V1031.83Z" fill="url(#paint1_linear_6708_19159)" fill-opacity="0.6" stroke="url(#paint2_linear_6708_19159)"/>
<path id="Vector 2" d="M672.999 902.043L399.008 1001.55V916.463L672.999 770.815V902.043Z" fill="url(#paint3_linear_6708_19159)" fill-opacity="0.6" stroke="url(#paint4_linear_6708_19159)"/>
<path id="Vector 1" d="M673 902.043L1 626.609V256L673 770.815V902.043Z" fill="url(#paint5_linear_6708_19159)" fill-opacity="0.6" stroke="url(#paint6_linear_6708_19159)"/>
</g>
<g id="Vector">
<path d="M87 622.795C87 626.299 84.3137 629.139 81 629.139C77.6863 629.139 75 626.299 75 622.795C75 619.291 77.6863 616.451 81 616.451C84.3137 616.451 87 619.291 87 622.795Z" fill="white" fill-opacity="0.1"/>
<path d="M115 622.795C115 626.299 112.314 629.139 109 629.139C105.686 629.139 103 626.299 103 622.795C103 619.291 105.686 616.451 109 616.451C112.314 616.451 115 619.291 115 622.795Z" fill="white" fill-opacity="0.1"/>
<path d="M143 622.795C143 626.299 140.314 629.139 137 629.139C133.686 629.139 131 626.299 131 622.795C131 619.291 133.686 616.451 137 616.451C140.314 616.451 143 619.291 143 622.795Z" fill="white" fill-opacity="0.1"/>
<path d="M171 622.795C171 626.299 168.314 629.139 165 629.139C161.686 629.139 159 626.299 159 622.795C159 619.291 161.686 616.451 165 616.451C168.314 616.451 171 619.291 171 622.795Z" fill="white" fill-opacity="0.1"/>
<path d="M199 622.795C199 626.299 196.314 629.139 193 629.139C189.686 629.139 187 626.299 187 622.795C187 619.291 189.686 616.451 193 616.451C196.314 616.451 199 619.291 199 622.795Z" fill="white" fill-opacity="0.1"/>
<path d="M227 622.795C227 626.299 224.314 629.139 221 629.139C217.686 629.139 215 626.299 215 622.795C215 619.291 217.686 616.451 221 616.451C224.314 616.451 227 619.291 227 622.795Z" fill="white" fill-opacity="0.1"/>
<path d="M87 652.402C87 655.905 84.3137 658.746 81 658.746C77.6863 658.746 75 655.905 75 652.402C75 648.898 77.6863 646.057 81 646.057C84.3137 646.057 87 648.898 87 652.402Z" fill="white" fill-opacity="0.1"/>
<path d="M115 652.402C115 655.905 112.314 658.746 109 658.746C105.686 658.746 103 655.905 103 652.402C103 648.898 105.686 646.057 109 646.057C112.314 646.057 115 648.898 115 652.402Z" fill="white" fill-opacity="0.1"/>
<path d="M143 652.402C143 655.905 140.314 658.746 137 658.746C133.686 658.746 131 655.905 131 652.402C131 648.898 133.686 646.057 137 646.057C140.314 646.057 143 648.898 143 652.402Z" fill="white" fill-opacity="0.1"/>
<path d="M171 652.402C171 655.905 168.314 658.746 165 658.746C161.686 658.746 159 655.905 159 652.402C159 648.898 161.686 646.057 165 646.057C168.314 646.057 171 648.898 171 652.402Z" fill="white" fill-opacity="0.1"/>
<path d="M199 652.402C199 655.905 196.314 658.746 193 658.746C189.686 658.746 187 655.905 187 652.402C187 648.898 189.686 646.057 193 646.057C196.314 646.057 199 648.898 199 652.402Z" fill="white" fill-opacity="0.1"/>
<path d="M227 652.402C227 655.905 224.314 658.746 221 658.746C217.686 658.746 215 655.905 215 652.402C215 648.898 217.686 646.057 221 646.057C224.314 646.057 227 648.898 227 652.402Z" fill="white" fill-opacity="0.1"/>
<path d="M87 682.008C87 685.512 84.3137 688.352 81 688.352C77.6863 688.352 75 685.512 75 682.008C75 678.504 77.6863 675.664 81 675.664C84.3137 675.664 87 678.504 87 682.008Z" fill="white" fill-opacity="0.1"/>
<path d="M115 682.008C115 685.512 112.314 688.352 109 688.352C105.686 688.352 103 685.512 103 682.008C103 678.504 105.686 675.664 109 675.664C112.314 675.664 115 678.504 115 682.008Z" fill="white" fill-opacity="0.1"/>
<path d="M143 682.008C143 685.512 140.314 688.352 137 688.352C133.686 688.352 131 685.512 131 682.008C131 678.504 133.686 675.664 137 675.664C140.314 675.664 143 678.504 143 682.008Z" fill="white" fill-opacity="0.1"/>
<path d="M171 682.008C171 685.512 168.314 688.352 165 688.352C161.686 688.352 159 685.512 159 682.008C159 678.504 161.686 675.664 165 675.664C168.314 675.664 171 678.504 171 682.008Z" fill="white" fill-opacity="0.1"/>
<path d="M199 682.008C199 685.512 196.314 688.352 193 688.352C189.686 688.352 187 685.512 187 682.008C187 678.504 189.686 675.664 193 675.664C196.314 675.664 199 678.504 199 682.008Z" fill="white" fill-opacity="0.1"/>
<path d="M227 682.008C227 685.512 224.314 688.352 221 688.352C217.686 688.352 215 685.512 215 682.008C215 678.504 217.686 675.664 221 675.664C224.314 675.664 227 678.504 227 682.008Z" fill="white" fill-opacity="0.1"/>
<path d="M87 711.615C87 715.118 84.3137 717.959 81 717.959C77.6863 717.959 75 715.118 75 711.615C75 708.111 77.6863 705.27 81 705.27C84.3137 705.27 87 708.111 87 711.615Z" fill="white" fill-opacity="0.1"/>
<path d="M115 711.615C115 715.118 112.314 717.959 109 717.959C105.686 717.959 103 715.118 103 711.615C103 708.111 105.686 705.27 109 705.27C112.314 705.27 115 708.111 115 711.615Z" fill="white" fill-opacity="0.1"/>
<path d="M143 711.615C143 715.118 140.314 717.959 137 717.959C133.686 717.959 131 715.118 131 711.615C131 708.111 133.686 705.27 137 705.27C140.314 705.27 143 708.111 143 711.615Z" fill="white" fill-opacity="0.1"/>
<path d="M171 711.615C171 715.118 168.314 717.959 165 717.959C161.686 717.959 159 715.118 159 711.615C159 708.111 161.686 705.27 165 705.27C168.314 705.27 171 708.111 171 711.615Z" fill="white" fill-opacity="0.1"/>
<path d="M199 711.615C199 715.118 196.314 717.959 193 717.959C189.686 717.959 187 715.118 187 711.615C187 708.111 189.686 705.27 193 705.27C196.314 705.27 199 708.111 199 711.615Z" fill="white" fill-opacity="0.1"/>
<path d="M227 711.615C227 715.118 224.314 717.959 221 717.959C217.686 717.959 215 715.118 215 711.615C215 708.111 217.686 705.27 221 705.27C224.314 705.27 227 708.111 227 711.615Z" fill="white" fill-opacity="0.1"/>
<path d="M87 741.221C87 744.725 84.3137 747.565 81 747.565C77.6863 747.565 75 744.725 75 741.221C75 737.717 77.6863 734.877 81 734.877C84.3137 734.877 87 737.717 87 741.221Z" fill="white" fill-opacity="0.1"/>
<path d="M115 741.221C115 744.725 112.314 747.565 109 747.565C105.686 747.565 103 744.725 103 741.221C103 737.717 105.686 734.877 109 734.877C112.314 734.877 115 737.717 115 741.221Z" fill="white" fill-opacity="0.1"/>
<path d="M143 741.221C143 744.725 140.314 747.565 137 747.565C133.686 747.565 131 744.725 131 741.221C131 737.717 133.686 734.877 137 734.877C140.314 734.877 143 737.717 143 741.221Z" fill="white" fill-opacity="0.1"/>
<path d="M171 741.221C171 744.725 168.314 747.565 165 747.565C161.686 747.565 159 744.725 159 741.221C159 737.717 161.686 734.877 165 734.877C168.314 734.877 171 737.717 171 741.221Z" fill="white" fill-opacity="0.1"/>
<path d="M199 741.221C199 744.725 196.314 747.565 193 747.565C189.686 747.565 187 744.725 187 741.221C187 737.717 189.686 734.877 193 734.877C196.314 734.877 199 737.717 199 741.221Z" fill="white" fill-opacity="0.1"/>
<path d="M227 741.221C227 744.725 224.314 747.565 221 747.565C217.686 747.565 215 744.725 215 741.221C215 737.717 217.686 734.877 221 734.877C224.314 734.877 227 737.717 227 741.221Z" fill="white" fill-opacity="0.1"/>
</g>
<g id="Vector_2">
<path d="M417.814 33.4516C417.814 39.2239 413.378 43.9032 407.906 43.9032C402.434 43.9032 397.998 39.2239 397.998 33.4516C397.998 27.6793 402.434 23 407.906 23C413.378 23 417.814 27.6793 417.814 33.4516Z" fill="white" fill-opacity="0.1"/>
<path d="M464.051 33.4516C464.051 39.2239 459.615 43.9032 454.143 43.9032C448.671 43.9032 444.235 39.2239 444.235 33.4516C444.235 27.6793 448.671 23 454.143 23C459.615 23 464.051 27.6793 464.051 33.4516Z" fill="white" fill-opacity="0.1"/>
<path d="M510.288 33.4516C510.288 39.2239 505.852 43.9032 500.38 43.9032C494.908 43.9032 490.472 39.2239 490.472 33.4516C490.472 27.6793 494.908 23 500.38 23C505.852 23 510.288 27.6793 510.288 33.4516Z" fill="white" fill-opacity="0.1"/>
<path d="M556.524 33.4516C556.524 39.2239 552.088 43.9032 546.616 43.9032C541.144 43.9032 536.709 39.2239 536.709 33.4516C536.709 27.6793 541.144 23 546.616 23C552.088 23 556.524 27.6793 556.524 33.4516Z" fill="white" fill-opacity="0.1"/>
<path d="M602.761 33.4516C602.761 39.2239 598.325 43.9032 592.853 43.9032C587.381 43.9032 582.945 39.2239 582.945 33.4516C582.945 27.6793 587.381 23 592.853 23C598.325 23 602.761 27.6793 602.761 33.4516Z" fill="white" fill-opacity="0.1"/>
<path d="M648.998 33.4516C648.998 39.2239 644.562 43.9032 639.09 43.9032C633.618 43.9032 629.182 39.2239 629.182 33.4516C629.182 27.6793 633.618 23 639.09 23C644.562 23 648.998 27.6793 648.998 33.4516Z" fill="white" fill-opacity="0.1"/>
<path d="M417.814 82.2258C417.814 87.9981 413.378 92.6774 407.906 92.6774C402.434 92.6774 397.998 87.9981 397.998 82.2258C397.998 76.4535 402.434 71.7742 407.906 71.7742C413.378 71.7742 417.814 76.4535 417.814 82.2258Z" fill="white" fill-opacity="0.1"/>
<path d="M464.051 82.2258C464.051 87.9981 459.615 92.6774 454.143 92.6774C448.671 92.6774 444.235 87.9981 444.235 82.2258C444.235 76.4535 448.671 71.7742 454.143 71.7742C459.615 71.7742 464.051 76.4535 464.051 82.2258Z" fill="white" fill-opacity="0.1"/>
<path d="M510.288 82.2258C510.288 87.9981 505.852 92.6774 500.38 92.6774C494.908 92.6774 490.472 87.9981 490.472 82.2258C490.472 76.4535 494.908 71.7742 500.38 71.7742C505.852 71.7742 510.288 76.4535 510.288 82.2258Z" fill="white" fill-opacity="0.1"/>
<path d="M556.524 82.2258C556.524 87.9981 552.088 92.6774 546.616 92.6774C541.144 92.6774 536.709 87.9981 536.709 82.2258C536.709 76.4535 541.144 71.7742 546.616 71.7742C552.088 71.7742 556.524 76.4535 556.524 82.2258Z" fill="white" fill-opacity="0.1"/>
<path d="M602.761 82.2258C602.761 87.9981 598.325 92.6774 592.853 92.6774C587.381 92.6774 582.945 87.9981 582.945 82.2258C582.945 76.4535 587.381 71.7742 592.853 71.7742C598.325 71.7742 602.761 76.4535 602.761 82.2258Z" fill="white" fill-opacity="0.1"/>
<path d="M648.998 82.2258C648.998 87.9981 644.562 92.6774 639.09 92.6774C633.618 92.6774 629.182 87.9981 629.182 82.2258C629.182 76.4535 633.618 71.7742 639.09 71.7742C644.562 71.7742 648.998 76.4535 648.998 82.2258Z" fill="white" fill-opacity="0.1"/>
<path d="M417.814 131C417.814 136.772 413.378 141.452 407.906 141.452C402.434 141.452 397.998 136.772 397.998 131C397.998 125.228 402.434 120.548 407.906 120.548C413.378 120.548 417.814 125.228 417.814 131Z" fill="white" fill-opacity="0.1"/>
<path d="M464.051 131C464.051 136.772 459.615 141.452 454.143 141.452C448.671 141.452 444.235 136.772 444.235 131C444.235 125.228 448.671 120.548 454.143 120.548C459.615 120.548 464.051 125.228 464.051 131Z" fill="white" fill-opacity="0.1"/>
<path d="M510.288 131C510.288 136.772 505.852 141.452 500.38 141.452C494.908 141.452 490.472 136.772 490.472 131C490.472 125.228 494.908 120.548 500.38 120.548C505.852 120.548 510.288 125.228 510.288 131Z" fill="white" fill-opacity="0.1"/>
<path d="M556.524 131C556.524 136.772 552.088 141.452 546.616 141.452C541.144 141.452 536.709 136.772 536.709 131C536.709 125.228 541.144 120.548 546.616 120.548C552.088 120.548 556.524 125.228 556.524 131Z" fill="white" fill-opacity="0.1"/>
<path d="M602.761 131C602.761 136.772 598.325 141.452 592.853 141.452C587.381 141.452 582.945 136.772 582.945 131C582.945 125.228 587.381 120.548 592.853 120.548C598.325 120.548 602.761 125.228 602.761 131Z" fill="white" fill-opacity="0.1"/>
<path d="M648.998 131C648.998 136.772 644.562 141.452 639.09 141.452C633.618 141.452 629.182 136.772 629.182 131C629.182 125.228 633.618 120.548 639.09 120.548C644.562 120.548 648.998 125.228 648.998 131Z" fill="white" fill-opacity="0.1"/>
<path d="M417.814 179.774C417.814 185.546 413.378 190.226 407.906 190.226C402.434 190.226 397.998 185.546 397.998 179.774C397.998 174.002 402.434 169.323 407.906 169.323C413.378 169.323 417.814 174.002 417.814 179.774Z" fill="white" fill-opacity="0.1"/>
<path d="M464.051 179.774C464.051 185.546 459.615 190.226 454.143 190.226C448.671 190.226 444.235 185.546 444.235 179.774C444.235 174.002 448.671 169.323 454.143 169.323C459.615 169.323 464.051 174.002 464.051 179.774Z" fill="white" fill-opacity="0.1"/>
<path d="M510.288 179.774C510.288 185.546 505.852 190.226 500.38 190.226C494.908 190.226 490.472 185.546 490.472 179.774C490.472 174.002 494.908 169.323 500.38 169.323C505.852 169.323 510.288 174.002 510.288 179.774Z" fill="white" fill-opacity="0.1"/>
<path d="M556.524 179.774C556.524 185.546 552.088 190.226 546.616 190.226C541.144 190.226 536.709 185.546 536.709 179.774C536.709 174.002 541.144 169.323 546.616 169.323C552.088 169.323 556.524 174.002 556.524 179.774Z" fill="white" fill-opacity="0.1"/>
<path d="M602.761 179.774C602.761 185.546 598.325 190.226 592.853 190.226C587.381 190.226 582.945 185.546 582.945 179.774C582.945 174.002 587.381 169.323 592.853 169.323C598.325 169.323 602.761 174.002 602.761 179.774Z" fill="white" fill-opacity="0.1"/>
<path d="M648.998 179.774C648.998 185.546 644.562 190.226 639.09 190.226C633.618 190.226 629.182 185.546 629.182 179.774C629.182 174.002 633.618 169.323 639.09 169.323C644.562 169.323 648.998 174.002 648.998 179.774Z" fill="white" fill-opacity="0.1"/>
<path d="M417.814 228.548C417.814 234.321 413.378 239 407.906 239C402.434 239 397.998 234.321 397.998 228.548C397.998 222.776 402.434 218.097 407.906 218.097C413.378 218.097 417.814 222.776 417.814 228.548Z" fill="white" fill-opacity="0.1"/>
<path d="M464.051 228.548C464.051 234.321 459.615 239 454.143 239C448.671 239 444.235 234.321 444.235 228.548C444.235 222.776 448.671 218.097 454.143 218.097C459.615 218.097 464.051 222.776 464.051 228.548Z" fill="white" fill-opacity="0.1"/>
<path d="M510.288 228.548C510.288 234.321 505.852 239 500.38 239C494.908 239 490.472 234.321 490.472 228.548C490.472 222.776 494.908 218.097 500.38 218.097C505.852 218.097 510.288 222.776 510.288 228.548Z" fill="white" fill-opacity="0.1"/>
<path d="M556.524 228.548C556.524 234.321 552.088 239 546.616 239C541.144 239 536.709 234.321 536.709 228.548C536.709 222.776 541.144 218.097 546.616 218.097C552.088 218.097 556.524 222.776 556.524 228.548Z" fill="white" fill-opacity="0.1"/>
<path d="M602.761 228.548C602.761 234.321 598.325 239 592.853 239C587.381 239 582.945 234.321 582.945 228.548C582.945 222.776 587.381 218.097 592.853 218.097C598.325 218.097 602.761 222.776 602.761 228.548Z" fill="white" fill-opacity="0.1"/>
<path d="M648.998 228.548C648.998 234.321 644.562 239 639.09 239C633.618 239 629.182 234.321 629.182 228.548C629.182 222.776 633.618 218.097 639.09 218.097C644.562 218.097 648.998 222.776 648.998 228.548Z" fill="white" fill-opacity="0.1"/>
</g>
</g>
<defs>
<linearGradient id="paint0_linear_6708_19159" x1="1" y1="0" x2="673" y2="1032" gradientUnits="userSpaceOnUse">
<stop stop-color="#559CFF"/>
<stop offset="1" stop-color="#1677FF"/>
</linearGradient>
<linearGradient id="paint1_linear_6708_19159" x1="394.5" y1="921" x2="679" y2="1032" gradientUnits="userSpaceOnUse">
<stop stop-color="#4991EE"/>
<stop offset="1" stop-color="#006EFA"/>
</linearGradient>
<linearGradient id="paint2_linear_6708_19159" x1="673" y1="1024.5" x2="399" y2="960.5" gradientUnits="userSpaceOnUse">
<stop stop-color="white" stop-opacity="0.6"/>
<stop offset="1" stop-color="white" stop-opacity="0"/>
</linearGradient>
<linearGradient id="paint3_linear_6708_19159" x1="404.5" y1="997" x2="661.253" y2="870.213" gradientUnits="userSpaceOnUse">
<stop stop-color="#4990ED"/>
<stop offset="1" stop-color="#0874FF"/>
</linearGradient>
<linearGradient id="paint4_linear_6708_19159" x1="527" y1="840.5" x2="399" y2="922.5" gradientUnits="userSpaceOnUse">
<stop stop-color="white" stop-opacity="0"/>
<stop offset="0.673232" stop-color="white" stop-opacity="0.31"/>
<stop offset="1" stop-color="white" stop-opacity="0"/>
</linearGradient>
<linearGradient id="paint5_linear_6708_19159" x1="419.197" y1="798.215" x2="494.184" y2="613.631" gradientUnits="userSpaceOnUse">
<stop stop-color="#539EFE"/>
<stop offset="1" stop-color="#1677F4"/>
</linearGradient>
<linearGradient id="paint6_linear_6708_19159" x1="8.5" y1="264" x2="680" y2="780.5" gradientUnits="userSpaceOnUse">
<stop stop-color="white" stop-opacity="0.6"/>
<stop offset="1" stop-color="white" stop-opacity="0"/>
</linearGradient>
</defs>
</svg>
