<svg width="36" height="36" viewBox="0 0 36 36" fill="none" xmlns="http://www.w3.org/2000/svg">
<g id="Misc Icons / Feature">
<rect width="36" height="36" rx="6" fill="white" fill-opacity="0.2"/>
<g id="chat-quote-fill">
<path id="Vector" d="M27 9C27.5523 9 28 9.44772 28 10V24C28 24.5523 27.5523 25 27 25H12.455L8 28.5V10C8 9.44772 8.44772 9 9 9H27ZM16.5153 13.4116C14.7282 14.1868 13.5 15.7554 13.5 17.5052C13.5 18.5 13.7766 19.1137 14.2917 19.6605C14.616 20.0048 15.129 20.25 15.6656 20.25C16.6321 20.25 17.4156 19.4665 17.4156 18.5C17.4156 17.5795 16.7045 16.8389 15.8024 16.7553C15.6411 16.7403 15.4783 16.7431 15.3232 16.7645L15.3234 16.6729C15.3287 16.2322 15.4223 14.9333 16.9616 14.1004L16.5153 13.4116ZM21.5153 13.4116C19.7283 14.1868 18.5 15.7554 18.5 17.5052C18.5 18.5 18.7766 19.1137 19.2917 19.6605C19.616 20.0048 20.1291 20.25 20.6656 20.25C21.6321 20.25 22.4156 19.4665 22.4156 18.5C22.4156 17.5795 21.7045 16.8389 20.8024 16.7553C20.6411 16.7403 20.4783 16.7431 20.3232 16.7645L20.3234 16.6729C20.3287 16.2322 20.4223 14.9333 21.9616 14.1004L21.5153 13.4116Z" fill="white"/>
</g>
</g>
</svg>
