<svg width="20" height="20" viewBox="0 0 20 20" fill="none" xmlns="http://www.w3.org/2000/svg">
<g id="&#229;&#136;&#160;&#233;&#153;&#164;">
<path id="Union" fill-rule="evenodd" clip-rule="evenodd" d="M12.5001 5.83203V5.6237C12.5001 4.35805 11.4741 3.33203 10.2084 3.33203H9.79175C8.5261 3.33203 7.50008 4.35805 7.50008 5.6237V5.83203H4.16675C3.82157 5.83203 3.54175 6.11185 3.54175 6.45703C3.54175 6.80221 3.82157 7.08203 4.16675 7.08203H5.0521L5.70343 14.5723C5.80641 15.7565 6.79778 16.6654 7.98648 16.6654H12.0138C13.2025 16.6654 14.1938 15.7565 14.2968 14.5723L14.9481 7.08203H15.8334C16.1786 7.08203 16.4584 6.80221 16.4584 6.45703C16.4584 6.11185 16.1786 5.83203 15.8334 5.83203H12.5001ZM9.79175 4.58203C9.21645 4.58203 8.75008 5.0484 8.75008 5.6237V5.83203H11.2501V5.6237C11.2501 5.0484 10.7837 4.58203 10.2084 4.58203H9.79175ZM13.6934 7.08203H6.30682L6.94873 14.464C6.99554 15.0023 7.44616 15.4154 7.98648 15.4154H12.0138C12.5541 15.4154 13.0047 15.0023 13.0515 14.464L13.6934 7.08203Z" fill="black" fill-opacity="0.45"/>
</g>
</svg>
