<svg width="16" height="16" viewBox="0 0 16 16" fill="none" xmlns="http://www.w3.org/2000/svg">
<g id="&#231;&#159;&#165;&#232;&#175;&#134;&#229;&#186;&#147;">
<path id="Vector (Stroke)" fill-rule="evenodd" clip-rule="evenodd" d="M2.66675 3.83464C2.66675 3.1903 3.18908 2.66797 3.83341 2.66797H4.83341C5.47775 2.66797 6.00008 3.1903 6.00008 3.83464V4.11357C6.15162 4.04158 6.32115 4.0013 6.50008 4.0013H7.50008C8.14441 4.0013 8.66675 4.52364 8.66675 5.16797V6.61055C8.69084 6.04573 9.15648 5.6077 9.70107 5.52228L10.7945 5.35079C11.4128 5.25382 12.0876 5.6138 12.2199 6.2816L13.3125 11.7931C13.4491 12.4822 12.9265 13.0486 12.2991 13.147L11.2056 13.3185C10.5874 13.4154 9.9126 13.0555 9.78022 12.3877L8.68766 6.87621C8.67601 6.81742 8.66915 6.75952 8.66675 6.70273V12.168C8.66675 12.8123 8.14441 13.3346 7.50008 13.3346H6.50008C6.17363 13.3346 5.8785 13.2006 5.66675 12.9845C5.45499 13.2006 5.15986 13.3346 4.83341 13.3346H3.83341C3.18908 13.3346 2.66675 12.8123 2.66675 12.168V3.83464ZM5.00008 10.0013V3.83464C5.00008 3.74259 4.92546 3.66797 4.83341 3.66797H3.83341C3.74137 3.66797 3.66675 3.74259 3.66675 3.83464V10.0013H5.00008ZM3.66675 11.0013V12.168C3.66675 12.26 3.74137 12.3346 3.83341 12.3346H4.83341C4.92546 12.3346 5.00008 12.26 5.00008 12.168V11.0013H3.66675ZM6.33341 11.0013V12.168C6.33341 12.26 6.40803 12.3346 6.50008 12.3346H7.50008C7.59213 12.3346 7.66675 12.26 7.66675 12.168V11.0013H6.33341ZM7.66675 10.0013V5.16797C7.66675 5.07592 7.59213 5.0013 7.50008 5.0013H6.50008C6.40803 5.0013 6.33341 5.07592 6.33341 5.16797V10.0013H7.66675ZM11.1608 6.37823C11.1071 6.3448 11.0317 6.32581 10.9495 6.33871L9.85602 6.51021C9.7743 6.52302 9.72108 6.56139 9.69361 6.59628C9.66746 6.6295 9.66385 6.65792 9.66857 6.68176L10.3464 10.101L11.909 9.85595L11.239 6.47605C11.2338 6.44965 11.2141 6.41148 11.1608 6.37823ZM12.1036 10.8377L10.541 11.0827L10.7611 12.1932C10.7664 12.2196 10.786 12.2578 10.8394 12.291C10.8931 12.3245 10.9685 12.3435 11.0507 12.3306L12.1441 12.1591C12.2259 12.1462 12.2791 12.1079 12.3065 12.073C12.3327 12.0398 12.3363 12.0114 12.3316 11.9875L12.1036 10.8377Z" fill="black" fill-opacity="0.45"/>
</g>
</svg>
