<svg width="32" height="32" viewBox="0 0 32 32" fill="none" xmlns="http://www.w3.org/2000/svg">
<g id="&#230;&#168;&#161;&#229;&#158;&#139;" clip-path="url(#clip0_6571_15438)">
<g id="Ai-Technology-Spark--Streamline-Core">
<path id="Vector 1898 (Stroke)" fill-rule="evenodd" clip-rule="evenodd" d="M5.80859 30.2857C5.80859 29.831 5.98921 29.395 6.3107 29.0735C6.63219 28.752 7.06822 28.5714 7.52288 28.5714H15.5229C15.9775 28.5714 16.4136 28.752 16.7351 29.0735C17.0566 29.395 17.2372 29.831 17.2372 30.2857C17.2372 30.7404 17.0566 31.1764 16.7351 31.4979C16.4136 31.8194 15.9775 32 15.5229 32H7.52288C7.06822 32 6.63219 31.8194 6.3107 31.4979C5.98921 31.1764 5.80859 30.7404 5.80859 30.2857Z" fill="#1677FF"/>
<path id="Subtract" fill-rule="evenodd" clip-rule="evenodd" d="M20.607 18.3703C19.6927 19.5634 18.5499 20.5714 17.2424 21.328V24C17.2424 24.6062 17.0016 25.1876 16.573 25.6162C16.1443 26.0449 15.5629 26.2857 14.9567 26.2857H8.09958C7.49337 26.2857 6.91199 26.0449 6.48334 25.6162C6.05468 25.1876 5.81387 24.6062 5.81387 24V21.328C4.39123 20.5055 3.1627 19.3859 2.21205 18.0455C1.26139 16.7051 0.610971 15.1755 0.305139 13.5609C-0.000692137 11.9463 0.0452581 10.2848 0.439857 8.68961C0.834455 7.09442 1.56842 5.60307 2.5917 4.31728C3.61499 3.03149 4.90352 1.98149 6.36944 1.23889C7.83535 0.496287 9.44417 0.0785451 11.0862 0.01415C12.7282 -0.050245 14.3648 0.240221 15.8844 0.865742C17.4039 1.49126 18.7707 2.43713 19.8916 3.63883C19.7599 4.20312 19.4648 4.71609 19.0432 5.11366C18.6217 5.51124 18.0923 5.77578 17.5213 5.87426C12.7853 6.69712 12.7853 13.4971 17.5213 14.32C18.703 14.5257 19.647 15.4285 19.903 16.6011L19.9464 16.8023C20.0767 17.4057 20.3076 17.9291 20.6093 18.3703H20.607Z" fill="#BAE0FF"/>
<path id="Union" fill-rule="evenodd" clip-rule="evenodd" d="M25.9507 3.90855C25.5165 2.00227 22.7942 2.01141 22.3759 3.92455L22.3599 3.99998L22.3256 4.14855C22.0905 5.19888 21.5491 6.15587 20.77 6.89842C19.9908 7.64096 19.0089 8.13568 17.9485 8.31998C15.9599 8.66741 15.9599 11.5246 17.9485 11.8697C19.014 12.0548 20.0003 12.5534 20.7811 13.3017C21.562 14.05 22.1021 15.0141 22.3325 16.0708L22.3759 16.2697C22.7942 18.1828 25.5165 18.1943 25.9507 16.2857L26.0033 16.0526C26.2436 15.0004 26.7895 14.0427 27.5723 13.2997C28.3551 12.5567 29.34 12.0616 30.4033 11.8766C32.3987 11.5291 32.3987 8.66741 30.4033 8.31998C29.315 8.13112 28.3092 7.61744 27.5182 6.84642C26.7272 6.07541 26.188 5.08313 25.9713 3.99998L25.9507 3.90855Z" fill="#1677FF"/>
</g>
</g>
<defs>
<clipPath id="clip0_6571_15438">
<rect width="32" height="32" fill="white"/>
</clipPath>
</defs>
</svg>
