<svg width="16" height="16" viewBox="0 0 16 16" fill="none" xmlns="http://www.w3.org/2000/svg">
<g id="new window">
<path id="Vector (Stroke)" fill-rule="evenodd" clip-rule="evenodd" d="M4.50008 4.33203C4.03984 4.33203 3.66675 4.70513 3.66675 5.16536V10.832C3.66675 11.2923 4.03984 11.6654 4.50008 11.6654H11.5001C11.9603 11.6654 12.3334 11.2923 12.3334 10.832V5.16536C12.3334 4.70513 11.9603 4.33203 11.5001 4.33203H4.50008ZM2.66675 5.16536C2.66675 4.15284 3.48756 3.33203 4.50008 3.33203H11.5001C12.5126 3.33203 13.3334 4.15284 13.3334 5.16536V10.832C13.3334 11.8446 12.5126 12.6654 11.5001 12.6654H4.50008C3.48756 12.6654 2.66675 11.8446 2.66675 10.832V5.16536ZM8.08341 5.83203C8.08341 5.55589 8.30727 5.33203 8.58341 5.33203H10.8334C11.1096 5.33203 11.3334 5.55589 11.3334 5.83203V8.08203C11.3334 8.35817 11.1096 8.58203 10.8334 8.58203C10.5573 8.58203 10.3334 8.35817 10.3334 8.08203V7.03914L8.18697 9.18558C7.99171 9.38085 7.67512 9.38085 7.47986 9.18558C7.2846 8.99032 7.2846 8.67374 7.47986 8.47848L9.62631 6.33203H8.58341C8.30727 6.33203 8.08341 6.10817 8.08341 5.83203Z" fill="black" fill-opacity="0.45"/>
</g>
</svg>
