<svg width="16" height="16" viewBox="0 0 16 16" fill="none" xmlns="http://www.w3.org/2000/svg">
<g id="plus">
<path id="Union" d="M8.49992 3.83203C8.49992 3.55589 8.27606 3.33203 7.99992 3.33203C7.72378 3.33203 7.49992 3.55589 7.49992 3.83203V7.4987H3.83325C3.55711 7.4987 3.33325 7.72256 3.33325 7.9987C3.33325 8.27484 3.55711 8.4987 3.83325 8.4987H7.49992V12.1654C7.49992 12.4415 7.72378 12.6654 7.99992 12.6654C8.27606 12.6654 8.49992 12.4415 8.49992 12.1654V8.4987H12.1666C12.4427 8.4987 12.6666 8.27484 12.6666 7.9987C12.6666 7.72256 12.4427 7.4987 12.1666 7.4987H8.49992V3.83203Z" fill="black" fill-opacity="0.45"/>
</g>
</svg>
