<svg width="16" height="16" viewBox="0 0 16 16" fill="none" xmlns="http://www.w3.org/2000/svg">
<g id="&#232;&#176;&#131;&#232;&#175;&#149;">
<path id="Vector" d="M5.46448 3.82149C7.86295 1.42302 11.2811 0.741495 14.0355 1.85013C15.1441 4.6045 14.4626 8.0227 12.0642 10.4212C11.6762 10.8091 11.2616 11.1521 10.8275 11.4499L10.8783 13.2285C10.8826 13.3798 10.7844 13.5151 10.6391 13.5578L7.30608 14.5381C7.12944 14.59 6.94413 14.489 6.89223 14.3124C6.88323 14.2819 6.87865 14.2501 6.8787 14.2183L6.8787 12.1115C6.87865 11.9347 6.80846 11.7651 6.68344 11.6401L4.24552 9.2022C4.1205 9.07718 3.95091 9.00696 3.77411 9.00694L1.66732 9.00695C1.48321 9.00697 1.33397 8.85773 1.33398 8.67361C1.33396 8.64181 1.33855 8.6101 1.34752 8.57957L2.32782 5.24652C2.37055 5.10126 2.50578 5.00305 2.65716 5.00734L4.43576 5.05816C4.73353 4.62402 5.07651 4.20946 5.46448 3.82149ZM3.00377 7.67364L3.77411 7.67362C4.30454 7.67362 4.81326 7.88432 5.18833 8.25939L7.62625 10.6973C8.0013 11.0724 8.21202 11.5811 8.21202 12.1115L8.21197 12.8818L9.52347 12.4961L9.49467 11.488C9.48175 11.0351 9.69968 10.6066 10.0733 10.3503C10.4447 10.0956 10.7955 9.80419 11.1213 9.47836C12.9455 7.65424 13.6222 5.09649 12.9879 2.89775C10.7891 2.2634 8.2314 2.94019 6.40729 4.7643C6.08145 5.09014 5.79006 5.44089 5.5353 5.81234C5.27903 6.18596 4.85056 6.40388 4.39764 6.39098L3.38952 6.36215L3.00377 7.67364ZM8.76432 7.12133C8.24361 6.60062 8.2436 5.75642 8.76431 5.23571C9.28499 4.71502 10.1292 4.71502 10.6499 5.23573C11.1706 5.7564 11.1706 6.60065 10.6499 7.12133C10.1292 7.64205 9.28499 7.642 8.76432 7.12133Z" fill="white"/>
</g>
</svg>
