<svg width="20" height="20" viewBox="0 0 20 20" fill="none" xmlns="http://www.w3.org/2000/svg">
<g id="sliders-horizontal">
<g id="Union">
<path d="M12.9166 3.95703C12.9166 3.61185 12.6368 3.33203 12.2916 3.33203C11.9464 3.33203 11.6666 3.61185 11.6666 3.95703V6.04036C11.6666 6.38554 11.9464 6.66536 12.2916 6.66536C12.6368 6.66536 12.9166 6.38554 12.9166 6.04036V5.41536H16.0416C16.3868 5.41536 16.6666 5.13554 16.6666 4.79036C16.6666 4.44519 16.3868 4.16536 16.0416 4.16536H12.9166V3.95703Z" fill="black" fill-opacity="0.45"/>
<path d="M3.33325 4.79036C3.33325 4.44519 3.61307 4.16536 3.95825 4.16536H9.37492C9.7201 4.16536 9.99992 4.44519 9.99992 4.79036C9.99992 5.13554 9.7201 5.41536 9.37492 5.41536H3.95825C3.61307 5.41536 3.33325 5.13554 3.33325 4.79036Z" fill="black" fill-opacity="0.45"/>
<path d="M3.33325 15.207C3.33325 14.8619 3.61307 14.582 3.95825 14.582H9.37492C9.7201 14.582 9.99992 14.8619 9.99992 15.207C9.99992 15.5522 9.7201 15.832 9.37492 15.832H3.95825C3.61307 15.832 3.33325 15.5522 3.33325 15.207Z" fill="black" fill-opacity="0.45"/>
<path d="M3.95825 9.3737C3.61307 9.3737 3.33325 9.65352 3.33325 9.9987C3.33325 10.3439 3.61307 10.6237 3.95825 10.6237H6.04159C6.38676 10.6237 6.66659 10.3439 6.66659 9.9987C6.66659 9.65352 6.38676 9.3737 6.04159 9.3737H3.95825Z" fill="black" fill-opacity="0.45"/>
<path d="M12.9166 13.957V14.582H16.0416C16.3868 14.582 16.6666 14.8619 16.6666 15.207C16.6666 15.5522 16.3868 15.832 16.0416 15.832H12.9166V16.0404C12.9166 16.3855 12.6368 16.6654 12.2916 16.6654C11.9464 16.6654 11.6666 16.3855 11.6666 16.0404V13.957C11.6666 13.6119 11.9464 13.332 12.2916 13.332C12.6368 13.332 12.9166 13.6119 12.9166 13.957Z" fill="black" fill-opacity="0.45"/>
<path d="M9.58325 9.3737V8.95703C9.58325 8.61185 9.30343 8.33203 8.95825 8.33203C8.61307 8.33203 8.33325 8.61185 8.33325 8.95703V11.0404C8.33325 11.3855 8.61307 11.6654 8.95825 11.6654C9.30343 11.6654 9.58325 11.3855 9.58325 11.0404V10.6237H16.0416C16.3868 10.6237 16.6666 10.3439 16.6666 9.9987C16.6666 9.65352 16.3868 9.3737 16.0416 9.3737H9.58325Z" fill="black" fill-opacity="0.45"/>
</g>
</g>
</svg>
